<?xml version="1.0" encoding="utf-8"?>
<!-- Generator: Adobe Illustrator 16.0.3, SVG Export Plug-In . SVG Version: 6.00 Build 0)  -->
<!DOCTYPE svg PUBLIC "-//W3C//DTD SVG 1.1 Basic//EN" "http://www.w3.org/Graphics/SVG/1.1/DTD/svg11-basic.dtd">
<svg version="1.1" baseProfile="basic" id="Ñëîé_1"
	 xmlns="http://www.w3.org/2000/svg" xmlns:xlink="http://www.w3.org/1999/xlink" x="0px" y="0px" width="600px" height="450px"
	 viewBox="0 0 600 450" xml:space="preserve">
<radialGradient id="SVGID_1_" cx="171.4014" cy="135.2393" r="733.4807" gradientTransform="matrix(1.0858 0 0 1.088 -119.9186 -249.2805)" gradientUnits="userSpaceOnUse">
	<stop  offset="0.004" style="stop-color:#4C02F1"/>
	<stop  offset="0.0082" style="stop-color:#4B02EF"/>
	<stop  offset="0.1263" style="stop-color:#3903C4"/>
	<stop  offset="0.2487" style="stop-color:#29039E"/>
	<stop  offset="0.3765" style="stop-color:#1D0380"/>
	<stop  offset="0.5099" style="stop-color:#130468"/>
	<stop  offset="0.6513" style="stop-color:#0C0457"/>
	<stop  offset="0.8062" style="stop-color:#07044D"/>
	<stop  offset="1" style="stop-color:#06044A"/>
</radialGradient>
<rect fill="url(#SVGID_1_)" width="600" height="450"/>
<linearGradient id="SVGID_2_" gradientUnits="userSpaceOnUse" x1="485.7012" y1="306.917" x2="518.3125" y2="306.917">
	<stop  offset="0" style="stop-color:#E39A65"/>
	<stop  offset="1" style="stop-color:#E95F8D"/>
</linearGradient>
<path fill="url(#SVGID_2_)" d="M502.007,316.506c-1.204,0-2.407-0.311-3.481-0.932l-11.736-6.775
	c-0.681-0.393-1.088-1.098-1.088-1.883s0.407-1.49,1.088-1.883l11.736-6.775c2.146-1.24,4.815-1.24,6.962,0l11.737,6.775
	c0.681,0.393,1.088,1.098,1.088,1.883s-0.407,1.49-1.088,1.883l-11.737,6.775C504.414,316.195,503.211,316.506,502.007,316.506z
	 M502.007,299.188c-0.883,0-1.765,0.227-2.552,0.682l-11.736,6.775c-0.136,0.08-0.156,0.205-0.156,0.271s0.021,0.191,0.156,0.271
	l11.737,6.775c0.001,0,0.001,0,0.001,0c1.572,0.908,3.527,0.908,5.1,0l11.738-6.775c0.136-0.08,0.156-0.205,0.156-0.271
	s-0.021-0.191-0.156-0.271l-11.737-6.775C503.771,299.414,502.889,299.188,502.007,299.188z"/>
<linearGradient id="SVGID_3_" gradientUnits="userSpaceOnUse" x1="441.0498" y1="262.2236" x2="495.8281" y2="262.2236">
	<stop  offset="0" style="stop-color:#E39A65"/>
	<stop  offset="1" style="stop-color:#E95F8D"/>
</linearGradient>
<path fill="url(#SVGID_3_)" d="M468.439,278.055c-1.956,0-3.911-0.504-5.655-1.512l-20.199-11.662
	c-0.961-0.555-1.535-1.549-1.535-2.658s0.574-2.104,1.535-2.658l20.198-11.66c3.487-2.016,7.823-2.016,11.311,0l20.198,11.66
	c0.962,0.555,1.535,1.549,1.536,2.658c0,1.109-0.574,2.104-1.535,2.66l-20.198,11.66
	C472.351,277.551,470.396,278.055,468.439,278.055z M468.438,248.254c-1.634,0-3.268,0.42-4.726,1.262l-20.198,11.66
	c-0.545,0.316-0.604,0.838-0.604,1.047c0,0.211,0.059,0.732,0.604,1.047l20.199,11.662l0,0c2.916,1.682,6.535,1.682,9.451,0
	l20.197-11.66c0.546-0.316,0.604-0.838,0.604-1.049c0-0.209-0.06-0.73-0.604-1.047l-20.198-11.66
	C471.706,248.674,470.072,248.254,468.438,248.254z"/>
<linearGradient id="SVGID_4_" gradientUnits="userSpaceOnUse" x1="79.8271" y1="266.126" x2="134.604" y2="266.126">
	<stop  offset="0" style="stop-color:#E39A65"/>
	<stop  offset="1" style="stop-color:#E95F8D"/>
</linearGradient>
<path fill="url(#SVGID_4_)" d="M107.216,281.957c-1.955,0-3.912-0.504-5.655-1.512l0,0l-20.198-11.662
	c-0.961-0.555-1.535-1.549-1.535-2.658s0.574-2.104,1.535-2.658l20.198-11.66c3.486-2.016,7.822-2.016,11.31,0l20.199,11.66
	c0.96,0.555,1.535,1.549,1.535,2.658s-0.574,2.104-1.535,2.658l-20.199,11.662C111.128,281.453,109.171,281.957,107.216,281.957z
	 M102.49,278.834c2.918,1.684,6.539,1.682,9.451,0l20.198-11.662c0.544-0.314,0.603-0.836,0.603-1.047
	c0-0.209-0.059-0.73-0.603-1.047l-20.198-11.66c-2.917-1.682-6.535-1.682-9.451,0l-20.199,11.66
	c-0.545,0.316-0.604,0.838-0.604,1.047c0,0.211,0.059,0.732,0.604,1.047L102.49,278.834z"/>
<linearGradient id="SVGID_5_" gradientUnits="userSpaceOnUse" x1="191.9707" y1="109.6445" x2="268.7451" y2="109.6445">
	<stop  offset="0" style="stop-color:#E39A65"/>
	<stop  offset="1" style="stop-color:#E95F8D"/>
</linearGradient>
<path fill="url(#SVGID_5_)" d="M230.358,131.669c-2.702,0-5.403-0.695-7.813-2.087l0,0l-28.596-16.51
	c-1.239-0.715-1.979-1.996-1.979-3.427c0-1.432,0.739-2.714,1.979-3.43l28.595-16.509c4.819-2.784,10.809-2.782,15.626,0
	l28.596,16.51c1.239,0.714,1.979,1.996,1.979,3.427c0,1.432-0.739,2.714-1.979,3.43l-28.595,16.509
	C235.762,130.974,233.06,131.669,230.358,131.669z M223.476,127.971c4.246,2.449,9.519,2.45,13.767,0l28.594-16.509
	c0.656-0.38,1.048-1.059,1.048-1.817s-0.392-1.438-1.048-1.816l-28.596-16.51c-4.248-2.45-9.521-2.451-13.767,0l-28.594,16.509
	c-0.656,0.38-1.047,1.059-1.047,1.817s0.392,1.438,1.047,1.816L223.476,127.971z"/>
<g>
	<path opacity="0.6" fill="#020230" d="M311.762,347.281l-144.43-83.388c-2.105-1.216-1.841-3.339,0.59-4.741l92.697-53.519
		c2.431-1.403,6.108-1.556,8.213-0.34l144.431,83.387c2.105,1.216,1.841,3.339-0.59,4.742l-92.696,53.519
		C317.545,348.344,313.867,348.496,311.762,347.281z"/>
	<linearGradient id="SVGID_6_" gradientUnits="userSpaceOnUse" x1="143.6011" y1="277.0625" x2="435.96" y2="277.0625">
		<stop  offset="0" style="stop-color:#E39A65"/>
		<stop  offset="1" style="stop-color:#E95F8D"/>
	</linearGradient>
	<path fill="url(#SVGID_6_)" d="M315.071,362.336c-1.688,0-3.309-0.352-4.545-1.066l-164.837-95.168
		c-1.347-0.777-2.088-1.896-2.088-3.156c-0.001-1.445,1.006-2.854,2.76-3.867l112.364-65.833c3.082-1.78,7.61-1.951,10.31-0.392
		l164.837,95.169c1.347,0.777,2.088,1.898,2.088,3.156c0,1.445-1.006,2.854-2.761,3.867l-112.363,65.832
		C319.165,361.844,317.069,362.336,315.071,362.336z M264.512,193.658c-1.688,0-3.483,0.407-4.851,1.196l-112.363,65.832
		c-1.152,0.666-1.836,1.51-1.835,2.26c0,0.725,0.629,1.24,1.157,1.545l164.837,95.168l0,0c2.108,1.217,5.974,1.041,8.443-0.389
		l112.364-65.832c1.151-0.664,1.835-1.508,1.835-2.258c0-0.725-0.629-1.24-1.156-1.545l-164.837-95.169
		C267.165,193.923,265.873,193.658,264.512,193.658z"/>
	<radialGradient id="SVGID_7_" cx="305.0879" cy="60.6074" r="223.296" gradientUnits="userSpaceOnUse">
		<stop  offset="0" style="stop-color:#E39A65"/>
		<stop  offset="0.4742" style="stop-color:#A92FFB"/>
		<stop  offset="0.5947" style="stop-color:#891CFB"/>
		<stop  offset="0.7421" style="stop-color:#6507FA"/>
		<stop  offset="0.8016" style="stop-color:#0D0C6F"/>
	</radialGradient>
	<path fill="url(#SVGID_7_)" d="M451.631,148.881L307.77,65.822c-0.989-0.571-2.021-0.688-2.937-0.421v0l-0.001,0.001
		c-0.005,0.001-0.009,0.003-0.014,0.004l-2.663,0.928l0.938,0.222c-0.376,0.445-0.679,0.998-0.879,1.646l-32.533,105.631
		c-0.806,2.62,0.375,5.802,2.637,7.108l143.862,83.058c0.35,0.202,0.704,0.341,1.059,0.433l-0.357,0.776l2.545-0.894l-0.006-0.003
		c1.042-0.414,1.9-1.346,2.314-2.69l32.534-105.631C455.074,153.37,453.894,150.187,451.631,148.881z"/>
	<radialGradient id="SVGID_8_" cx="168.5151" cy="239.9307" r="244.1717" gradientUnits="userSpaceOnUse">
		<stop  offset="0" style="stop-color:#E39A65"/>
		<stop  offset="0.4742" style="stop-color:#A92FFB"/>
		<stop  offset="0.5679" style="stop-color:#891CFB"/>
		<stop  offset="0.6825" style="stop-color:#6507FA"/>
		<stop  offset="0.7381" style="stop-color:#0D0C6F"/>
	</radialGradient>
	<path fill="url(#SVGID_8_)" d="M411.03,267.942l0.051,0.062l-142.099-82.041c-2.09-1.207-5.741-1.056-8.155,0.338l-91.809,53.005
		l-3.062-1.168l0.86,4.295l0.004-0.003c0.114,0.646,0.566,1.251,1.378,1.72l143.411,82.799c2.091,1.207,5.742,1.056,8.155-0.338
		l92.043-53.141c1.136-0.656,1.789-1.47,1.951-2.273l0.005,0.006l0.878-4.18L411.03,267.942z"/>
	<radialGradient id="SVGID_9_" cx="190.9727" cy="190.9209" r="218.9596" gradientUnits="userSpaceOnUse">
		<stop  offset="0" style="stop-color:#E39A65"/>
		<stop  offset="0.4742" style="stop-color:#A92FFB"/>
		<stop  offset="0.5875" style="stop-color:#891CFB"/>
		<stop  offset="0.7262" style="stop-color:#6507FA"/>
		<stop  offset="1" style="stop-color:#3919BB"/>
	</radialGradient>
	<path fill="url(#SVGID_9_)" d="M311.762,323.17l-144.43-83.387c-2.105-1.215-1.841-3.338,0.59-4.741l92.697-53.519
		c2.431-1.404,6.108-1.556,8.213-0.341l144.431,83.388c2.105,1.215,1.841,3.338-0.59,4.741l-92.696,53.519
		C317.545,324.233,313.867,324.387,311.762,323.17z"/>
	<path fill="#FFFFFF" d="M412.672,268.188l-92.696,53.518c-2.431,1.404-6.108,1.557-8.214,0.342l-144.43-83.389
		c-0.717-0.414-1.138-0.937-1.313-1.497c-0.278,0.968,0.129,1.938,1.313,2.622l144.43,83.387c2.105,1.217,5.783,1.063,8.214-0.34
		l92.696-53.519c1.603-0.925,2.242-2.159,1.903-3.243C414.357,266.82,413.735,267.572,412.672,268.188z"/>
	<g opacity="0.4">
		<path fill="#06033E" d="M236.223,226.252l-4.876-2.816c-0.391-0.226-0.342-0.621,0.11-0.882l5.755-3.323
			c0.452-0.261,1.136-0.29,1.527-0.063l4.876,2.815c0.392,0.226,0.342,0.621-0.11,0.882l-5.755,3.322
			C237.298,226.449,236.614,226.478,236.223,226.252z"/>
		<path fill="#06033E" d="M243.753,230.6l-4.876-2.816c-0.392-0.226-0.342-0.621,0.11-0.881l5.755-3.324
			c0.452-0.261,1.136-0.289,1.527-0.063l4.876,2.814c0.392,0.227,0.342,0.621-0.11,0.883l-5.755,3.322
			C244.829,230.797,244.145,230.825,243.753,230.6z"/>
		<path fill="#06033E" d="M251.284,234.947l-4.876-2.816c-0.392-0.226-0.342-0.621,0.11-0.881l5.755-3.324
			c0.452-0.26,1.136-0.289,1.527-0.063l4.876,2.814c0.392,0.227,0.342,0.621-0.11,0.883l-5.755,3.322
			C252.359,235.145,251.675,235.172,251.284,234.947z"/>
		<path fill="#06033E" d="M261.698,231.355l-4.876-2.814c-0.392-0.227-0.343-0.621,0.109-0.882l4.832-2.79
			c0.452-0.261,1.136-0.29,1.528-0.063l4.876,2.815c0.392,0.227,0.342,0.621-0.11,0.883l-4.832,2.789
			C262.773,231.554,262.09,231.582,261.698,231.355z"/>
		<path fill="#06033E" d="M269.229,235.703l-4.876-2.814c-0.392-0.227-0.343-0.621,0.109-0.883l4.832-2.789
			c0.452-0.261,1.136-0.289,1.528-0.063l4.876,2.814c0.392,0.227,0.342,0.621-0.11,0.883l-4.832,2.789
			C270.304,235.901,269.62,235.93,269.229,235.703z"/>
		<path fill="#06033E" d="M276.759,240.051l-4.876-2.814c-0.392-0.227-0.343-0.621,0.109-0.883l4.832-2.789
			c0.452-0.261,1.136-0.289,1.528-0.063l4.876,2.814c0.392,0.227,0.342,0.621-0.11,0.883l-4.832,2.789
			C277.834,240.249,277.15,240.277,276.759,240.051z"/>
		<path fill="#06033E" d="M284.289,244.398l-4.876-2.814c-0.392-0.227-0.343-0.621,0.109-0.883l4.832-2.789
			c0.452-0.261,1.136-0.289,1.528-0.063l4.876,2.814c0.392,0.227,0.342,0.621-0.11,0.883l-4.832,2.789
			C285.364,244.597,284.681,244.625,284.289,244.398z"/>
		<path fill="#06033E" d="M291.819,248.746l-4.876-2.814c-0.392-0.227-0.343-0.621,0.109-0.883l4.832-2.789
			c0.452-0.261,1.136-0.289,1.527-0.063l4.876,2.814c0.392,0.227,0.342,0.621-0.11,0.882l-4.832,2.79
			C292.895,248.944,292.211,248.973,291.819,248.746z"/>
		<path fill="#06033E" d="M299.35,253.094l-4.876-2.814c-0.392-0.227-0.343-0.621,0.109-0.883l4.832-2.789
			c0.452-0.261,1.136-0.289,1.528-0.063l4.876,2.814c0.392,0.227,0.342,0.621-0.109,0.882l-4.832,2.79
			C300.425,253.292,299.741,253.32,299.35,253.094z"/>
		<path fill="#06033E" d="M306.88,257.441l-4.876-2.814c-0.392-0.227-0.343-0.621,0.109-0.883l4.832-2.789
			c0.451-0.261,1.136-0.289,1.527-0.063l4.876,2.814c0.392,0.227,0.343,0.621-0.109,0.883l-4.832,2.789
			C307.955,257.64,307.271,257.668,306.88,257.441z"/>
		<path fill="#06033E" d="M314.41,261.789l-4.876-2.814c-0.392-0.227-0.343-0.621,0.109-0.883l4.832-2.789
			c0.452-0.261,1.136-0.289,1.527-0.063l4.876,2.815c0.392,0.227,0.342,0.621-0.109,0.882l-4.832,2.79
			C315.485,261.986,314.802,262.016,314.41,261.789z"/>
		<path fill="#06033E" d="M321.94,266.137l-4.876-2.814c-0.392-0.227-0.343-0.621,0.109-0.883l4.832-2.789
			c0.451-0.262,1.136-0.289,1.527-0.063l4.876,2.815c0.392,0.227,0.343,0.621-0.109,0.882l-4.832,2.79
			C323.016,266.334,322.332,266.363,321.94,266.137z"/>
		<path fill="#06033E" d="M329.471,270.484l-4.876-2.814c-0.392-0.227-0.343-0.621,0.109-0.883l4.831-2.789
			c0.453-0.261,1.137-0.289,1.528-0.063l4.876,2.815c0.392,0.227,0.342,0.621-0.109,0.882l-4.832,2.79
			C330.546,270.682,329.862,270.711,329.471,270.484z"/>
		<path fill="#06033E" d="M272.794,229.298l-4.876-2.815c-0.392-0.227-0.342-0.621,0.11-0.882l4.831-2.79
			c0.452-0.261,1.136-0.289,1.528-0.063l4.876,2.815c0.392,0.226,0.342,0.621-0.11,0.882l-4.831,2.789
			C273.869,229.496,273.185,229.523,272.794,229.298z"/>
		<path fill="#06033E" d="M265.151,224.885l-4.876-2.815c-0.392-0.226-0.342-0.621,0.11-0.882l4.831-2.79
			c0.452-0.261,1.136-0.289,1.528-0.063l4.876,2.815c0.392,0.226,0.342,0.621-0.11,0.882l-4.831,2.789
			C266.227,225.083,265.542,225.111,265.151,224.885z"/>
		<path fill="#06033E" d="M257.496,220.465l-10.502-6.063c-0.392-0.226-0.343-0.621,0.109-0.882l4.832-2.79
			c0.452-0.261,1.136-0.29,1.527-0.063l10.502,6.063c0.392,0.226,0.342,0.621-0.11,0.882l-4.831,2.79
			C258.571,220.663,257.887,220.692,257.496,220.465z"/>
		<path fill="#06033E" d="M262.847,215.091l-8.522-4.921c-0.392-0.226-0.343-0.621,0.109-0.882l4.832-2.79
			c0.452-0.261,1.136-0.289,1.528-0.063l8.522,4.92c0.392,0.226,0.342,0.621-0.11,0.882l-4.832,2.789
			C263.922,215.289,263.238,215.317,262.847,215.091z"/>
		<path fill="#06033E" d="M280.324,233.646l-4.876-2.815c-0.392-0.227-0.342-0.621,0.11-0.882l4.831-2.79
			c0.452-0.26,1.136-0.289,1.528-0.063l4.876,2.814c0.392,0.227,0.342,0.621-0.11,0.883l-4.831,2.789
			C281.399,233.844,280.716,233.871,280.324,233.646z"/>
		<path fill="#06033E" d="M287.854,237.993l-4.876-2.815c-0.392-0.227-0.342-0.621,0.11-0.882l4.831-2.79
			c0.452-0.261,1.136-0.289,1.528-0.063l4.876,2.814c0.392,0.227,0.342,0.621-0.11,0.883l-4.831,2.789
			C288.93,238.19,288.246,238.219,287.854,237.993z"/>
		<path fill="#06033E" d="M295.385,242.34l-4.876-2.814c-0.392-0.227-0.342-0.621,0.11-0.882l4.832-2.79
			c0.452-0.26,1.136-0.289,1.527-0.063l4.876,2.814c0.391,0.227,0.342,0.621-0.11,0.883l-4.831,2.789
			C296.46,242.538,295.776,242.566,295.385,242.34z"/>
		<path fill="#06033E" d="M302.915,246.688l-4.876-2.814c-0.392-0.227-0.342-0.621,0.11-0.882l4.831-2.79
			c0.452-0.261,1.136-0.289,1.527-0.063l4.877,2.814c0.392,0.227,0.342,0.621-0.11,0.883l-4.831,2.789
			C303.99,246.886,303.307,246.914,302.915,246.688z"/>
		<path fill="#06033E" d="M310.445,251.035l-4.877-2.814c-0.391-0.227-0.342-0.621,0.11-0.882l4.831-2.79
			c0.452-0.261,1.137-0.289,1.527-0.063l4.877,2.814c0.391,0.227,0.342,0.621-0.11,0.883l-4.831,2.789
			C311.521,251.233,310.837,251.262,310.445,251.035z"/>
		<path fill="#06033E" d="M317.976,255.383l-4.876-2.814c-0.392-0.227-0.343-0.621,0.109-0.883l4.831-2.789
			c0.452-0.261,1.136-0.289,1.527-0.063l4.876,2.814c0.392,0.227,0.343,0.621-0.109,0.883l-4.831,2.789
			C319.051,255.581,318.367,255.609,317.976,255.383z"/>
		<path fill="#06033E" d="M325.506,259.73l-4.877-2.814c-0.391-0.227-0.342-0.621,0.11-0.883l4.831-2.789
			c0.452-0.261,1.137-0.289,1.527-0.063l4.877,2.814c0.391,0.227,0.342,0.621-0.11,0.883l-4.831,2.789
			C326.581,259.929,325.897,259.957,325.506,259.73z"/>
		<path fill="#06033E" d="M333.036,264.078l-4.876-2.814c-0.392-0.227-0.343-0.621,0.109-0.883l4.831-2.789
			c0.452-0.261,1.136-0.289,1.527-0.063l4.877,2.814c0.392,0.227,0.342,0.621-0.11,0.883l-4.831,2.789
			C334.111,264.276,333.428,264.305,333.036,264.078z"/>
		<path fill="#06033E" d="M340.566,268.426l-4.877-2.814c-0.391-0.227-0.342-0.621,0.11-0.883l4.831-2.789
			c0.452-0.261,1.136-0.289,1.527-0.063l4.877,2.814c0.391,0.227,0.342,0.621-0.11,0.882l-4.831,2.79
			C341.642,268.624,340.958,268.652,340.566,268.426z"/>
		<path fill="#06033E" d="M353.953,276.155l-10.64-6.143c-0.392-0.226-0.342-0.621,0.11-0.882l4.831-2.789
			c0.452-0.262,1.136-0.29,1.527-0.063l10.64,6.142c0.392,0.227,0.343,0.621-0.109,0.883l-4.832,2.789
			C355.028,276.354,354.345,276.381,353.953,276.155z"/>
		<path fill="#06033E" d="M368.613,267.691l-8.979-5.186c-0.392-0.226-0.343-0.62,0.109-0.881l4.832-2.79
			c0.452-0.261,1.136-0.289,1.527-0.063l8.979,5.186c0.392,0.226,0.343,0.62-0.109,0.881l-4.831,2.79
			C369.689,267.889,369.005,267.917,368.613,267.691z"/>
		<path fill="#06033E" d="M293.511,232.795l-4.876-2.815c-0.392-0.226-0.342-0.62,0.11-0.882l4.832-2.789
			c0.452-0.262,1.136-0.29,1.527-0.064l4.876,2.816c0.392,0.226,0.343,0.621-0.109,0.881l-4.832,2.79
			C294.586,232.992,293.902,233.021,293.511,232.795z"/>
		<path fill="#06033E" d="M285.793,228.34l-4.876-2.816c-0.391-0.226-0.342-0.621,0.11-0.882l4.832-2.79
			c0.452-0.261,1.136-0.29,1.527-0.063l4.876,2.815c0.391,0.226,0.342,0.621-0.11,0.882l-4.831,2.789
			C286.869,228.537,286.185,228.564,285.793,228.34z"/>
		<path fill="#06033E" d="M278.076,223.883l-4.876-2.815c-0.392-0.227-0.342-0.621,0.11-0.882l4.831-2.79
			c0.452-0.261,1.136-0.289,1.528-0.063l4.876,2.815c0.392,0.226,0.342,0.621-0.11,0.882l-4.831,2.79
			C279.151,224.081,278.467,224.109,278.076,223.883z"/>
		<path fill="#06033E" d="M270.358,219.427l-4.876-2.815c-0.392-0.226-0.343-0.621,0.109-0.882l4.832-2.79
			c0.452-0.261,1.136-0.29,1.527-0.063l4.876,2.815c0.391,0.226,0.342,0.621-0.11,0.882l-4.832,2.79
			C271.434,219.625,270.75,219.653,270.358,219.427z"/>
		<path fill="#06033E" d="M301.041,237.143l-4.876-2.815c-0.392-0.226-0.342-0.621,0.11-0.882l4.832-2.789
			c0.452-0.262,1.136-0.29,1.527-0.064l4.876,2.816c0.392,0.226,0.343,0.62-0.109,0.881l-4.832,2.79
			C302.117,237.34,301.433,237.368,301.041,237.143z"/>
		<path fill="#06033E" d="M308.571,241.49l-4.876-2.815c-0.392-0.226-0.342-0.621,0.109-0.882l4.832-2.789
			c0.452-0.262,1.136-0.289,1.527-0.064l4.876,2.816c0.392,0.226,0.343,0.62-0.109,0.881l-4.831,2.79
			C309.646,241.688,308.963,241.717,308.571,241.49z"/>
		<path fill="#06033E" d="M316.102,245.838l-4.876-2.815c-0.392-0.226-0.343-0.621,0.109-0.882l4.832-2.789
			c0.452-0.262,1.136-0.29,1.527-0.064l4.876,2.816c0.392,0.226,0.343,0.62-0.109,0.881l-4.832,2.79
			C317.178,246.035,316.493,246.063,316.102,245.838z"/>
		<path fill="#06033E" d="M323.632,250.186l-4.876-2.816c-0.392-0.225-0.342-0.62,0.109-0.881l4.832-2.789
			c0.452-0.262,1.136-0.29,1.527-0.064l4.876,2.816c0.392,0.226,0.343,0.62-0.109,0.881l-4.832,2.79
			C324.707,250.383,324.023,250.411,323.632,250.186z"/>
		<path fill="#06033E" d="M331.162,254.533l-4.876-2.816c-0.392-0.226-0.343-0.62,0.109-0.881l4.832-2.789
			c0.452-0.262,1.136-0.29,1.527-0.064l4.876,2.815c0.392,0.226,0.343,0.621-0.109,0.882l-4.832,2.789
			C332.238,254.73,331.554,254.759,331.162,254.533z"/>
		<path fill="#06033E" d="M338.692,258.881l-4.876-2.816c-0.392-0.226-0.342-0.62,0.109-0.881l4.832-2.79
			c0.452-0.261,1.136-0.289,1.527-0.063l4.876,2.816c0.392,0.225,0.343,0.62-0.109,0.881l-4.831,2.789
			C339.768,259.078,339.084,259.106,338.692,258.881z"/>
		<path fill="#06033E" d="M346.223,263.229l-4.876-2.816c-0.392-0.226-0.343-0.62,0.11-0.881l4.831-2.79
			c0.452-0.261,1.136-0.289,1.527-0.063l4.876,2.815c0.392,0.226,0.343,0.621-0.109,0.882l-4.832,2.789
			C347.299,263.426,346.614,263.454,346.223,263.229z"/>
		<path fill="#06033E" d="M353.753,267.576l-4.876-2.816c-0.392-0.226-0.342-0.62,0.109-0.881l4.832-2.789
			c0.452-0.262,1.136-0.29,1.527-0.064l4.876,2.816c0.392,0.226,0.343,0.62-0.109,0.881l-4.832,2.789
			C354.828,267.773,354.145,267.802,353.753,267.576z"/>
		<path fill="#06033E" d="M361.283,271.924l-4.876-2.815c-0.392-0.227-0.343-0.622,0.109-0.882l4.832-2.79
			c0.452-0.261,1.136-0.289,1.527-0.063l4.876,2.815c0.392,0.226,0.343,0.621-0.109,0.882l-4.832,2.789
			C362.359,272.121,361.675,272.148,361.283,271.924z"/>
		<path fill="#06033E" d="M289.546,222.041l-4.876-2.815c-0.392-0.226-0.343-0.621,0.109-0.882l4.832-2.79
			c0.452-0.261,1.136-0.29,1.528-0.063l4.876,2.815c0.392,0.226,0.342,0.621-0.11,0.882l-4.832,2.79
			C290.621,222.239,289.938,222.267,289.546,222.041z"/>
		<path fill="#06033E" d="M282.053,217.715l-4.876-2.815c-0.391-0.226-0.342-0.621,0.11-0.882l4.832-2.79
			c0.452-0.261,1.136-0.289,1.527-0.063l4.876,2.815c0.392,0.226,0.343,0.621-0.109,0.882l-4.832,2.79
			C283.128,217.913,282.444,217.941,282.053,217.715z"/>
		<path fill="#06033E" d="M274.561,213.389l-4.876-2.815c-0.392-0.226-0.342-0.621,0.11-0.882l4.831-2.79
			c0.452-0.261,1.136-0.29,1.528-0.063l4.876,2.815c0.392,0.226,0.342,0.621-0.109,0.882l-4.832,2.79
			C275.636,213.587,274.952,213.615,274.561,213.389z"/>
		<path fill="#06033E" d="M267.067,209.063l-4.876-2.815c-0.392-0.226-0.343-0.621,0.109-0.882l4.832-2.79
			c0.452-0.261,1.136-0.29,1.527-0.063l4.876,2.815c0.392,0.226,0.342,0.621-0.109,0.882l-4.832,2.79
			C268.143,209.261,267.459,209.29,267.067,209.063z"/>
		<path fill="#06033E" d="M274.772,204.615l-4.876-2.815c-0.392-0.226-0.343-0.621,0.109-0.882l1.597-0.922
			c0.452-0.261,1.136-0.29,1.528-0.063l4.876,2.815c0.392,0.226,0.342,0.621-0.11,0.882l-1.597,0.922
			C275.848,204.813,275.164,204.841,274.772,204.615z"/>
		<path fill="#06033E" d="M284.551,210.26l-4.876-2.815c-0.392-0.226-0.342-0.621,0.11-0.882l1.597-0.922
			c0.452-0.261,1.136-0.29,1.527-0.063l4.876,2.815c0.392,0.226,0.342,0.621-0.11,0.882l-1.597,0.922
			C285.626,210.458,284.942,210.486,284.551,210.26z"/>
		<path fill="#06033E" d="M292.012,214.568l-4.876-2.815c-0.392-0.226-0.342-0.621,0.11-0.882l1.597-0.922
			c0.452-0.261,1.136-0.29,1.527-0.063l4.876,2.815c0.392,0.227,0.343,0.621-0.109,0.882l-1.597,0.923
			C293.087,214.766,292.403,214.794,292.012,214.568z"/>
		<path fill="#06033E" d="M299.474,218.876l-4.876-2.815c-0.392-0.226-0.343-0.621,0.109-0.882l1.598-0.922
			c0.452-0.261,1.136-0.29,1.527-0.064l4.876,2.815c0.392,0.226,0.343,0.621-0.109,0.882l-1.598,0.922
			C300.549,219.074,299.865,219.102,299.474,218.876z"/>
		<path fill="#06033E" d="M306.936,223.184l-4.877-2.815c-0.391-0.226-0.342-0.621,0.11-0.881l1.597-0.922
			c0.452-0.261,1.137-0.29,1.527-0.063l4.877,2.815c0.391,0.226,0.342,0.621-0.11,0.882l-1.597,0.922
			C308.011,223.382,307.327,223.41,306.936,223.184z"/>
		<path fill="#06033E" d="M348.592,247.234l-4.876-2.814c-0.392-0.227-0.343-0.621,0.109-0.883l1.598-0.922
			c0.452-0.261,1.136-0.289,1.527-0.063l4.876,2.814c0.392,0.227,0.343,0.621-0.109,0.882l-1.598,0.923
			C349.668,247.433,348.983,247.461,348.592,247.234z"/>
		<path fill="#06033E" d="M356.054,251.543l-4.876-2.815c-0.392-0.226-0.343-0.621,0.109-0.882l1.598-0.922
			c0.452-0.262,1.136-0.289,1.527-0.064l4.876,2.816c0.392,0.226,0.343,0.621-0.109,0.881l-1.598,0.923
			C357.129,251.74,356.445,251.769,356.054,251.543z"/>
		<path fill="#06033E" d="M363.516,255.851l-4.877-2.815c-0.391-0.226-0.342-0.621,0.11-0.882l1.597-0.922
			c0.452-0.261,1.137-0.29,1.527-0.063l4.877,2.815c0.391,0.226,0.342,0.62-0.11,0.882l-1.597,0.922
			C364.591,256.049,363.906,256.076,363.516,255.851z"/>
		<path fill="#06033E" d="M370.977,260.158l-4.876-2.814c-0.392-0.227-0.343-0.621,0.109-0.883l1.598-0.922
			c0.452-0.261,1.136-0.289,1.527-0.063l4.876,2.814c0.392,0.227,0.343,0.621-0.109,0.883l-1.598,0.922
			C372.053,260.356,371.368,260.385,370.977,260.158z"/>
		<path fill="#06033E" d="M297.076,226.389l-4.876-2.815c-0.392-0.226-0.343-0.621,0.109-0.882l4.832-2.79
			c0.452-0.261,1.136-0.29,1.527-0.063l4.876,2.815c0.392,0.226,0.342,0.621-0.109,0.882l-4.832,2.79
			C298.151,226.586,297.468,226.615,297.076,226.389z"/>
		<path fill="#06033E" d="M304.606,230.736l-4.876-2.814c-0.392-0.227-0.343-0.621,0.109-0.883l4.832-2.789
			c0.451-0.261,1.136-0.29,1.527-0.063l4.876,2.815c0.392,0.227,0.343,0.621-0.11,0.882l-4.831,2.789
			C305.682,230.934,304.998,230.963,304.606,230.736z"/>
		<path fill="#06033E" d="M312.137,235.084l-4.876-2.815c-0.392-0.226-0.343-0.62,0.109-0.882l4.831-2.789
			c0.453-0.262,1.137-0.289,1.528-0.063l4.876,2.815c0.392,0.227,0.342,0.621-0.109,0.882l-4.832,2.79
			C313.212,235.281,312.528,235.311,312.137,235.084z"/>
		<path fill="#06033E" d="M319.667,239.432l-4.876-2.815c-0.392-0.226-0.343-0.62,0.109-0.882l4.832-2.789
			c0.451-0.262,1.136-0.289,1.527-0.063l4.876,2.815c0.392,0.226,0.343,0.621-0.11,0.881l-4.831,2.79
			C320.742,239.629,320.059,239.658,319.667,239.432z"/>
		<path fill="#06033E" d="M327.197,243.779l-4.876-2.814c-0.392-0.227-0.343-0.621,0.109-0.883l4.832-2.789
			c0.451-0.262,1.136-0.289,1.527-0.063l4.876,2.815c0.392,0.226,0.342,0.621-0.109,0.881l-4.832,2.791
			C328.272,243.977,327.589,244.006,327.197,243.779z"/>
		<path fill="#06033E" d="M334.728,248.127l-4.876-2.815c-0.392-0.226-0.343-0.621,0.109-0.882l4.832-2.789
			c0.451-0.262,1.136-0.289,1.527-0.063l4.876,2.815c0.392,0.226,0.343,0.621-0.109,0.881l-4.832,2.79
			C335.803,248.324,335.119,248.354,334.728,248.127z"/>
		<path fill="#06033E" d="M342.258,252.475l-4.876-2.815c-0.392-0.226-0.343-0.62,0.109-0.882l4.831-2.789
			c0.453-0.262,1.137-0.29,1.528-0.064l4.876,2.816c0.392,0.226,0.342,0.621-0.109,0.881l-4.832,2.79
			C343.333,252.672,342.649,252.701,342.258,252.475z"/>
		<path fill="#06033E" d="M349.788,256.822l-4.876-2.815c-0.392-0.226-0.343-0.62,0.109-0.882l4.832-2.789
			c0.451-0.262,1.136-0.29,1.527-0.064l4.876,2.816c0.392,0.226,0.343,0.621-0.11,0.881l-4.831,2.79
			C350.863,257.02,350.18,257.048,349.788,256.822z"/>
		<path fill="#06033E" d="M357.318,261.17l-4.876-2.815c-0.392-0.226-0.343-0.621,0.109-0.882l4.831-2.789
			c0.452-0.262,1.137-0.29,1.528-0.064l4.876,2.816c0.392,0.226,0.342,0.62-0.109,0.881l-4.832,2.79
			C358.394,261.367,357.71,261.396,357.318,261.17z"/>
		<path fill="#06033E" d="M254.024,226.926l-14.361-8.292c-0.392-0.226-0.342-0.621,0.11-0.882l4.831-2.79
			c0.452-0.261,1.136-0.289,1.528-0.063l14.361,8.291c0.392,0.226,0.342,0.621-0.11,0.882l-4.832,2.79
			C255.1,227.123,254.416,227.152,254.024,226.926z"/>
		<path fill="#06033E" d="M346.535,280.338l-14.36-8.292c-0.392-0.226-0.343-0.621,0.109-0.882l4.832-2.789
			c0.452-0.262,1.136-0.29,1.527-0.064l14.36,8.291c0.392,0.227,0.343,0.621-0.109,0.883l-4.831,2.789
			C347.611,280.535,346.927,280.563,346.535,280.338z"/>
		<path fill="#06033E" d="M316.421,272.554l-4.876-2.815c-0.392-0.227-0.343-0.621,0.109-0.882l5.756-3.323
			c0.452-0.261,1.136-0.289,1.527-0.063l4.876,2.814c0.392,0.227,0.343,0.621-0.109,0.883l-5.756,3.322
			C317.496,272.752,316.813,272.779,316.421,272.554z"/>
		<path fill="#06033E" d="M261.736,240.981l-7.798-4.503c-0.392-0.226-0.342-0.62,0.11-0.881l5.755-3.324
			c0.452-0.26,1.136-0.289,1.528-0.063l7.798,4.502c0.391,0.227,0.342,0.621-0.11,0.883l-5.755,3.322
			C262.812,241.18,262.127,241.207,261.736,240.981z"/>
		<path fill="#06033E" d="M309.166,268.365l-7.799-4.503c-0.392-0.226-0.343-0.621,0.109-0.882l5.756-3.323
			c0.452-0.261,1.136-0.289,1.527-0.063l7.799,4.503c0.391,0.226,0.342,0.62-0.11,0.882l-5.755,3.322
			C310.241,268.563,309.557,268.591,309.166,268.365z"/>
		<path fill="#06033E" d="M272.601,247.254l-7.798-4.502c-0.392-0.227-0.342-0.621,0.11-0.883l5.755-3.322
			c0.452-0.262,1.136-0.289,1.527-0.063l7.798,4.503c0.392,0.226,0.343,0.62-0.109,0.881l-5.756,3.323
			C273.676,247.451,272.992,247.48,272.601,247.254z"/>
		<path fill="#06033E" d="M272.248,238.514l33.904,19.576c0.421,0.242,0.421,0.636,0,0.879l-5.869,3.389
			c-0.421,0.242-1.103,0.242-1.523,0l-33.905-19.575L272.248,238.514z"/>
		<path fill="#06033E" d="M337.467,280.437l5.432,3.136c0.321,0.186,0.28,0.509-0.09,0.723l-2.354,1.359
			c-0.37,0.214-0.931,0.237-1.252,0.053l-5.432-3.137c-0.321-0.186-0.28-0.509,0.09-0.723l2.354-1.359
			C336.585,280.274,337.146,280.251,337.467,280.437z"/>
		<path fill="#06033E" d="M329.874,276.053l5.432,3.136c0.321,0.186,0.28,0.509-0.09,0.724l-2.354,1.359
			c-0.371,0.213-0.931,0.236-1.252,0.051l-5.432-3.136c-0.32-0.185-0.28-0.509,0.09-0.723l2.354-1.359
			C328.992,275.891,329.553,275.867,329.874,276.053z"/>
		<path fill="#06033E" d="M322.344,271.705l5.432,3.137c0.321,0.185,0.28,0.508-0.09,0.723l-2.354,1.359
			c-0.37,0.213-0.931,0.236-1.252,0.051l-5.432-3.135c-0.321-0.186-0.28-0.51,0.09-0.724l2.354-1.358
			C321.463,271.543,322.023,271.52,322.344,271.705z"/>
		<path fill="#06033E" d="M334.032,273.652l5.432,3.135c0.321,0.186,0.281,0.51-0.09,0.724l-2.354,1.359
			c-0.37,0.214-0.931,0.237-1.252,0.052l-5.432-3.136c-0.32-0.186-0.28-0.509,0.09-0.724l2.354-1.359
			C333.151,273.49,333.712,273.467,334.032,273.652z"/>
	</g>
	<g opacity="0.4">
		<path fill="#06033E" d="M236.223,226.252l-4.876-2.816c-0.391-0.226-0.342-0.621,0.11-0.882l5.755-3.323
			c0.452-0.261,1.136-0.29,1.527-0.063l4.876,2.815c0.392,0.226,0.342,0.621-0.11,0.882l-5.755,3.322
			C237.298,226.449,236.614,226.478,236.223,226.252z"/>
		<path fill="#06033E" d="M243.753,230.6l-4.876-2.816c-0.392-0.226-0.342-0.621,0.11-0.881l5.755-3.324
			c0.452-0.261,1.136-0.289,1.527-0.063l4.876,2.814c0.392,0.227,0.342,0.621-0.11,0.883l-5.755,3.322
			C244.829,230.797,244.145,230.825,243.753,230.6z"/>
		<path fill="#06033E" d="M251.284,234.947l-4.876-2.816c-0.392-0.226-0.342-0.621,0.11-0.881l5.755-3.324
			c0.452-0.26,1.136-0.289,1.527-0.063l4.876,2.814c0.392,0.227,0.342,0.621-0.11,0.883l-5.755,3.322
			C252.359,235.145,251.675,235.172,251.284,234.947z"/>
		<path fill="#06033E" d="M261.698,231.355l-4.876-2.814c-0.392-0.227-0.343-0.621,0.109-0.882l4.832-2.79
			c0.452-0.261,1.136-0.29,1.528-0.063l4.876,2.815c0.392,0.227,0.342,0.621-0.11,0.883l-4.832,2.789
			C262.773,231.554,262.09,231.582,261.698,231.355z"/>
		<path fill="#06033E" d="M269.229,235.703l-4.876-2.814c-0.392-0.227-0.343-0.621,0.109-0.883l4.832-2.789
			c0.452-0.261,1.136-0.289,1.528-0.063l4.876,2.814c0.392,0.227,0.342,0.621-0.11,0.883l-4.832,2.789
			C270.304,235.901,269.62,235.93,269.229,235.703z"/>
		<path fill="#06033E" d="M276.759,240.051l-4.876-2.814c-0.392-0.227-0.343-0.621,0.109-0.883l4.832-2.789
			c0.452-0.261,1.136-0.289,1.528-0.063l4.876,2.814c0.392,0.227,0.342,0.621-0.11,0.883l-4.832,2.789
			C277.834,240.249,277.15,240.277,276.759,240.051z"/>
		<path fill="#06033E" d="M284.289,244.398l-4.876-2.814c-0.392-0.227-0.343-0.621,0.109-0.883l4.832-2.789
			c0.452-0.261,1.136-0.289,1.528-0.063l4.876,2.814c0.392,0.227,0.342,0.621-0.11,0.883l-4.832,2.789
			C285.364,244.597,284.681,244.625,284.289,244.398z"/>
		<path fill="#06033E" d="M291.819,248.746l-4.876-2.814c-0.392-0.227-0.343-0.621,0.109-0.883l4.832-2.789
			c0.452-0.261,1.136-0.289,1.527-0.063l4.876,2.814c0.392,0.227,0.342,0.621-0.11,0.882l-4.832,2.79
			C292.895,248.944,292.211,248.973,291.819,248.746z"/>
		<path fill="#06033E" d="M299.35,253.094l-4.876-2.814c-0.392-0.227-0.343-0.621,0.109-0.883l4.832-2.789
			c0.452-0.261,1.136-0.289,1.528-0.063l4.876,2.814c0.392,0.227,0.342,0.621-0.109,0.882l-4.832,2.79
			C300.425,253.292,299.741,253.32,299.35,253.094z"/>
		<path fill="#06033E" d="M306.88,257.441l-4.876-2.814c-0.392-0.227-0.343-0.621,0.109-0.883l4.832-2.789
			c0.451-0.261,1.136-0.289,1.527-0.063l4.876,2.814c0.392,0.227,0.343,0.621-0.109,0.883l-4.832,2.789
			C307.955,257.64,307.271,257.668,306.88,257.441z"/>
		<path fill="#06033E" d="M314.41,261.789l-4.876-2.814c-0.392-0.227-0.343-0.621,0.109-0.883l4.832-2.789
			c0.452-0.261,1.136-0.289,1.527-0.063l4.876,2.815c0.392,0.227,0.342,0.621-0.109,0.882l-4.832,2.79
			C315.485,261.986,314.802,262.016,314.41,261.789z"/>
		<path fill="#06033E" d="M321.94,266.137l-4.876-2.814c-0.392-0.227-0.343-0.621,0.109-0.883l4.832-2.789
			c0.451-0.262,1.136-0.289,1.527-0.063l4.876,2.815c0.392,0.227,0.343,0.621-0.109,0.882l-4.832,2.79
			C323.016,266.334,322.332,266.363,321.94,266.137z"/>
		<path fill="#06033E" d="M329.471,270.484l-4.876-2.814c-0.392-0.227-0.343-0.621,0.109-0.883l4.831-2.789
			c0.453-0.261,1.137-0.289,1.528-0.063l4.876,2.815c0.392,0.227,0.342,0.621-0.109,0.882l-4.832,2.79
			C330.546,270.682,329.862,270.711,329.471,270.484z"/>
		<path fill="#06033E" d="M272.794,229.298l-4.876-2.815c-0.392-0.227-0.342-0.621,0.11-0.882l4.831-2.79
			c0.452-0.261,1.136-0.289,1.528-0.063l4.876,2.815c0.392,0.226,0.342,0.621-0.11,0.882l-4.831,2.789
			C273.869,229.496,273.185,229.523,272.794,229.298z"/>
		<path fill="#06033E" d="M265.151,224.885l-4.876-2.815c-0.392-0.226-0.342-0.621,0.11-0.882l4.831-2.79
			c0.452-0.261,1.136-0.289,1.528-0.063l4.876,2.815c0.392,0.226,0.342,0.621-0.11,0.882l-4.831,2.789
			C266.227,225.083,265.542,225.111,265.151,224.885z"/>
		<path fill="#06033E" d="M257.496,220.465l-10.502-6.063c-0.392-0.226-0.343-0.621,0.109-0.882l4.832-2.79
			c0.452-0.261,1.136-0.29,1.527-0.063l10.502,6.063c0.392,0.226,0.342,0.621-0.11,0.882l-4.831,2.79
			C258.571,220.663,257.887,220.692,257.496,220.465z"/>
		<path fill="#06033E" d="M262.847,215.091l-8.522-4.921c-0.392-0.226-0.343-0.621,0.109-0.882l4.832-2.79
			c0.452-0.261,1.136-0.289,1.528-0.063l8.522,4.92c0.392,0.226,0.342,0.621-0.11,0.882l-4.832,2.789
			C263.922,215.289,263.238,215.317,262.847,215.091z"/>
		<path fill="#06033E" d="M280.324,233.646l-4.876-2.815c-0.392-0.227-0.342-0.621,0.11-0.882l4.831-2.79
			c0.452-0.26,1.136-0.289,1.528-0.063l4.876,2.814c0.392,0.227,0.342,0.621-0.11,0.883l-4.831,2.789
			C281.399,233.844,280.716,233.871,280.324,233.646z"/>
		<path fill="#06033E" d="M287.854,237.993l-4.876-2.815c-0.392-0.227-0.342-0.621,0.11-0.882l4.831-2.79
			c0.452-0.261,1.136-0.289,1.528-0.063l4.876,2.814c0.392,0.227,0.342,0.621-0.11,0.883l-4.831,2.789
			C288.93,238.19,288.246,238.219,287.854,237.993z"/>
		<path fill="#06033E" d="M295.385,242.34l-4.876-2.814c-0.392-0.227-0.342-0.621,0.11-0.882l4.832-2.79
			c0.452-0.26,1.136-0.289,1.527-0.063l4.876,2.814c0.391,0.227,0.342,0.621-0.11,0.883l-4.831,2.789
			C296.46,242.538,295.776,242.566,295.385,242.34z"/>
		<path fill="#06033E" d="M302.915,246.688l-4.876-2.814c-0.392-0.227-0.342-0.621,0.11-0.882l4.831-2.79
			c0.452-0.261,1.136-0.289,1.527-0.063l4.877,2.814c0.392,0.227,0.342,0.621-0.11,0.883l-4.831,2.789
			C303.99,246.886,303.307,246.914,302.915,246.688z"/>
		<path fill="#06033E" d="M310.445,251.035l-4.877-2.814c-0.391-0.227-0.342-0.621,0.11-0.882l4.831-2.79
			c0.452-0.261,1.137-0.289,1.527-0.063l4.877,2.814c0.391,0.227,0.342,0.621-0.11,0.883l-4.831,2.789
			C311.521,251.233,310.837,251.262,310.445,251.035z"/>
		<path fill="#06033E" d="M317.976,255.383l-4.876-2.814c-0.392-0.227-0.343-0.621,0.109-0.883l4.831-2.789
			c0.452-0.261,1.136-0.289,1.527-0.063l4.876,2.814c0.392,0.227,0.343,0.621-0.109,0.883l-4.831,2.789
			C319.051,255.581,318.367,255.609,317.976,255.383z"/>
		<path fill="#06033E" d="M325.506,259.73l-4.877-2.814c-0.391-0.227-0.342-0.621,0.11-0.883l4.831-2.789
			c0.452-0.261,1.137-0.289,1.527-0.063l4.877,2.814c0.391,0.227,0.342,0.621-0.11,0.883l-4.831,2.789
			C326.581,259.929,325.897,259.957,325.506,259.73z"/>
		<path fill="#06033E" d="M333.036,264.078l-4.876-2.814c-0.392-0.227-0.343-0.621,0.109-0.883l4.831-2.789
			c0.452-0.261,1.136-0.289,1.527-0.063l4.877,2.814c0.392,0.227,0.342,0.621-0.11,0.883l-4.831,2.789
			C334.111,264.276,333.428,264.305,333.036,264.078z"/>
		<path fill="#06033E" d="M340.566,268.426l-4.877-2.814c-0.391-0.227-0.342-0.621,0.11-0.883l4.831-2.789
			c0.452-0.261,1.136-0.289,1.527-0.063l4.877,2.814c0.391,0.227,0.342,0.621-0.11,0.882l-4.831,2.79
			C341.642,268.624,340.958,268.652,340.566,268.426z"/>
		<path fill="#06033E" d="M353.953,276.155l-10.64-6.143c-0.392-0.226-0.342-0.621,0.11-0.882l4.831-2.789
			c0.452-0.262,1.136-0.29,1.527-0.063l10.64,6.142c0.392,0.227,0.343,0.621-0.109,0.883l-4.832,2.789
			C355.028,276.354,354.345,276.381,353.953,276.155z"/>
		<path fill="#06033E" d="M368.613,267.691l-8.979-5.186c-0.392-0.226-0.343-0.62,0.109-0.881l4.832-2.79
			c0.452-0.261,1.136-0.289,1.527-0.063l8.979,5.186c0.392,0.226,0.343,0.62-0.109,0.881l-4.831,2.79
			C369.689,267.889,369.005,267.917,368.613,267.691z"/>
		<path fill="#06033E" d="M293.511,232.795l-4.876-2.815c-0.392-0.226-0.342-0.62,0.11-0.882l4.832-2.789
			c0.452-0.262,1.136-0.29,1.527-0.064l4.876,2.816c0.392,0.226,0.343,0.621-0.109,0.881l-4.832,2.79
			C294.586,232.992,293.902,233.021,293.511,232.795z"/>
		<path fill="#06033E" d="M285.793,228.34l-4.876-2.816c-0.391-0.226-0.342-0.621,0.11-0.882l4.832-2.79
			c0.452-0.261,1.136-0.29,1.527-0.063l4.876,2.815c0.391,0.226,0.342,0.621-0.11,0.882l-4.831,2.789
			C286.869,228.537,286.185,228.564,285.793,228.34z"/>
		<path fill="#06033E" d="M278.076,223.883l-4.876-2.815c-0.392-0.227-0.342-0.621,0.11-0.882l4.831-2.79
			c0.452-0.261,1.136-0.289,1.528-0.063l4.876,2.815c0.392,0.226,0.342,0.621-0.11,0.882l-4.831,2.79
			C279.151,224.081,278.467,224.109,278.076,223.883z"/>
		<path fill="#06033E" d="M270.358,219.427l-4.876-2.815c-0.392-0.226-0.343-0.621,0.109-0.882l4.832-2.79
			c0.452-0.261,1.136-0.29,1.527-0.063l4.876,2.815c0.391,0.226,0.342,0.621-0.11,0.882l-4.832,2.79
			C271.434,219.625,270.75,219.653,270.358,219.427z"/>
		<path fill="#06033E" d="M301.041,237.143l-4.876-2.815c-0.392-0.226-0.342-0.621,0.11-0.882l4.832-2.789
			c0.452-0.262,1.136-0.29,1.527-0.064l4.876,2.816c0.392,0.226,0.343,0.62-0.109,0.881l-4.832,2.79
			C302.117,237.34,301.433,237.368,301.041,237.143z"/>
		<path fill="#06033E" d="M308.571,241.49l-4.876-2.815c-0.392-0.226-0.342-0.621,0.109-0.882l4.832-2.789
			c0.452-0.262,1.136-0.289,1.527-0.064l4.876,2.816c0.392,0.226,0.343,0.62-0.109,0.881l-4.831,2.79
			C309.646,241.688,308.963,241.717,308.571,241.49z"/>
		<path fill="#06033E" d="M316.102,245.838l-4.876-2.815c-0.392-0.226-0.343-0.621,0.109-0.882l4.832-2.789
			c0.452-0.262,1.136-0.29,1.527-0.064l4.876,2.816c0.392,0.226,0.343,0.62-0.109,0.881l-4.832,2.79
			C317.178,246.035,316.493,246.063,316.102,245.838z"/>
		<path fill="#06033E" d="M323.632,250.186l-4.876-2.816c-0.392-0.225-0.342-0.62,0.109-0.881l4.832-2.789
			c0.452-0.262,1.136-0.29,1.527-0.064l4.876,2.816c0.392,0.226,0.343,0.62-0.109,0.881l-4.832,2.79
			C324.707,250.383,324.023,250.411,323.632,250.186z"/>
		<path fill="#06033E" d="M331.162,254.533l-4.876-2.816c-0.392-0.226-0.343-0.62,0.109-0.881l4.832-2.789
			c0.452-0.262,1.136-0.29,1.527-0.064l4.876,2.815c0.392,0.226,0.343,0.621-0.109,0.882l-4.832,2.789
			C332.238,254.73,331.554,254.759,331.162,254.533z"/>
		<path fill="#06033E" d="M338.692,258.881l-4.876-2.816c-0.392-0.226-0.342-0.62,0.109-0.881l4.832-2.79
			c0.452-0.261,1.136-0.289,1.527-0.063l4.876,2.816c0.392,0.225,0.343,0.62-0.109,0.881l-4.831,2.789
			C339.768,259.078,339.084,259.106,338.692,258.881z"/>
		<path fill="#06033E" d="M346.223,263.229l-4.876-2.816c-0.392-0.226-0.343-0.62,0.11-0.881l4.831-2.79
			c0.452-0.261,1.136-0.289,1.527-0.063l4.876,2.815c0.392,0.226,0.343,0.621-0.109,0.882l-4.832,2.789
			C347.299,263.426,346.614,263.454,346.223,263.229z"/>
		<path fill="#06033E" d="M353.753,267.576l-4.876-2.816c-0.392-0.226-0.342-0.62,0.109-0.881l4.832-2.789
			c0.452-0.262,1.136-0.29,1.527-0.064l4.876,2.816c0.392,0.226,0.343,0.62-0.109,0.881l-4.832,2.789
			C354.828,267.773,354.145,267.802,353.753,267.576z"/>
		<path fill="#06033E" d="M361.283,271.924l-4.876-2.815c-0.392-0.227-0.343-0.622,0.109-0.882l4.832-2.79
			c0.452-0.261,1.136-0.289,1.527-0.063l4.876,2.815c0.392,0.226,0.343,0.621-0.109,0.882l-4.832,2.789
			C362.359,272.121,361.675,272.148,361.283,271.924z"/>
		<path fill="#06033E" d="M289.546,222.041l-4.876-2.815c-0.392-0.226-0.343-0.621,0.109-0.882l4.832-2.79
			c0.452-0.261,1.136-0.29,1.528-0.063l4.876,2.815c0.392,0.226,0.342,0.621-0.11,0.882l-4.832,2.79
			C290.621,222.239,289.938,222.267,289.546,222.041z"/>
		<path fill="#06033E" d="M282.053,217.715l-4.876-2.815c-0.391-0.226-0.342-0.621,0.11-0.882l4.832-2.79
			c0.452-0.261,1.136-0.289,1.527-0.063l4.876,2.815c0.392,0.226,0.343,0.621-0.109,0.882l-4.832,2.79
			C283.128,217.913,282.444,217.941,282.053,217.715z"/>
		<path fill="#06033E" d="M274.561,213.389l-4.876-2.815c-0.392-0.226-0.342-0.621,0.11-0.882l4.831-2.79
			c0.452-0.261,1.136-0.29,1.528-0.063l4.876,2.815c0.392,0.226,0.342,0.621-0.109,0.882l-4.832,2.79
			C275.636,213.587,274.952,213.615,274.561,213.389z"/>
		<path fill="#06033E" d="M267.067,209.063l-4.876-2.815c-0.392-0.226-0.343-0.621,0.109-0.882l4.832-2.79
			c0.452-0.261,1.136-0.29,1.527-0.063l4.876,2.815c0.392,0.226,0.342,0.621-0.109,0.882l-4.832,2.79
			C268.143,209.261,267.459,209.29,267.067,209.063z"/>
		<path fill="#06033E" d="M274.772,204.615l-4.876-2.815c-0.392-0.226-0.343-0.621,0.109-0.882l1.597-0.922
			c0.452-0.261,1.136-0.29,1.528-0.063l4.876,2.815c0.392,0.226,0.342,0.621-0.11,0.882l-1.597,0.922
			C275.848,204.813,275.164,204.841,274.772,204.615z"/>
		<path fill="#06033E" d="M284.551,210.26l-4.876-2.815c-0.392-0.226-0.342-0.621,0.11-0.882l1.597-0.922
			c0.452-0.261,1.136-0.29,1.527-0.063l4.876,2.815c0.392,0.226,0.342,0.621-0.11,0.882l-1.597,0.922
			C285.626,210.458,284.942,210.486,284.551,210.26z"/>
		<path fill="#06033E" d="M292.012,214.568l-4.876-2.815c-0.392-0.226-0.342-0.621,0.11-0.882l1.597-0.922
			c0.452-0.261,1.136-0.29,1.527-0.063l4.876,2.815c0.392,0.227,0.343,0.621-0.109,0.882l-1.597,0.923
			C293.087,214.766,292.403,214.794,292.012,214.568z"/>
		<path fill="#06033E" d="M299.474,218.876l-4.876-2.815c-0.392-0.226-0.343-0.621,0.109-0.882l1.598-0.922
			c0.452-0.261,1.136-0.29,1.527-0.064l4.876,2.815c0.392,0.226,0.343,0.621-0.109,0.882l-1.598,0.922
			C300.549,219.074,299.865,219.102,299.474,218.876z"/>
		<path fill="#06033E" d="M306.936,223.184l-4.877-2.815c-0.391-0.226-0.342-0.621,0.11-0.881l1.597-0.922
			c0.452-0.261,1.137-0.29,1.527-0.063l4.877,2.815c0.391,0.226,0.342,0.621-0.11,0.882l-1.597,0.922
			C308.011,223.382,307.327,223.41,306.936,223.184z"/>
		<path fill="#06033E" d="M348.592,247.234l-4.876-2.814c-0.392-0.227-0.343-0.621,0.109-0.883l1.598-0.922
			c0.452-0.261,1.136-0.289,1.527-0.063l4.876,2.814c0.392,0.227,0.343,0.621-0.109,0.882l-1.598,0.923
			C349.668,247.433,348.983,247.461,348.592,247.234z"/>
		<path fill="#06033E" d="M356.054,251.543l-4.876-2.815c-0.392-0.226-0.343-0.621,0.109-0.882l1.598-0.922
			c0.452-0.262,1.136-0.289,1.527-0.064l4.876,2.816c0.392,0.226,0.343,0.621-0.109,0.881l-1.598,0.923
			C357.129,251.74,356.445,251.769,356.054,251.543z"/>
		<path fill="#06033E" d="M363.516,255.851l-4.877-2.815c-0.391-0.226-0.342-0.621,0.11-0.882l1.597-0.922
			c0.452-0.261,1.137-0.29,1.527-0.063l4.877,2.815c0.391,0.226,0.342,0.62-0.11,0.882l-1.597,0.922
			C364.591,256.049,363.906,256.076,363.516,255.851z"/>
		<path fill="#06033E" d="M370.977,260.158l-4.876-2.814c-0.392-0.227-0.343-0.621,0.109-0.883l1.598-0.922
			c0.452-0.261,1.136-0.289,1.527-0.063l4.876,2.814c0.392,0.227,0.343,0.621-0.109,0.883l-1.598,0.922
			C372.053,260.356,371.368,260.385,370.977,260.158z"/>
		<path fill="#06033E" d="M297.076,226.389l-4.876-2.815c-0.392-0.226-0.343-0.621,0.109-0.882l4.832-2.79
			c0.452-0.261,1.136-0.29,1.527-0.063l4.876,2.815c0.392,0.226,0.342,0.621-0.109,0.882l-4.832,2.79
			C298.151,226.586,297.468,226.615,297.076,226.389z"/>
		<path fill="#06033E" d="M304.606,230.736l-4.876-2.814c-0.392-0.227-0.343-0.621,0.109-0.883l4.832-2.789
			c0.451-0.261,1.136-0.29,1.527-0.063l4.876,2.815c0.392,0.227,0.343,0.621-0.11,0.882l-4.831,2.789
			C305.682,230.934,304.998,230.963,304.606,230.736z"/>
		<path fill="#06033E" d="M312.137,235.084l-4.876-2.815c-0.392-0.226-0.343-0.62,0.109-0.882l4.831-2.789
			c0.453-0.262,1.137-0.289,1.528-0.063l4.876,2.815c0.392,0.227,0.342,0.621-0.109,0.882l-4.832,2.79
			C313.212,235.281,312.528,235.311,312.137,235.084z"/>
		<path fill="#06033E" d="M319.667,239.432l-4.876-2.815c-0.392-0.226-0.343-0.62,0.109-0.882l4.832-2.789
			c0.451-0.262,1.136-0.289,1.527-0.063l4.876,2.815c0.392,0.226,0.343,0.621-0.11,0.881l-4.831,2.79
			C320.742,239.629,320.059,239.658,319.667,239.432z"/>
		<path fill="#06033E" d="M327.197,243.779l-4.876-2.814c-0.392-0.227-0.343-0.621,0.109-0.883l4.832-2.789
			c0.451-0.262,1.136-0.289,1.527-0.063l4.876,2.815c0.392,0.226,0.342,0.621-0.109,0.881l-4.832,2.791
			C328.272,243.977,327.589,244.006,327.197,243.779z"/>
		<path fill="#06033E" d="M334.728,248.127l-4.876-2.815c-0.392-0.226-0.343-0.621,0.109-0.882l4.832-2.789
			c0.451-0.262,1.136-0.289,1.527-0.063l4.876,2.815c0.392,0.226,0.343,0.621-0.109,0.881l-4.832,2.79
			C335.803,248.324,335.119,248.354,334.728,248.127z"/>
		<path fill="#06033E" d="M342.258,252.475l-4.876-2.815c-0.392-0.226-0.343-0.62,0.109-0.882l4.831-2.789
			c0.453-0.262,1.137-0.29,1.528-0.064l4.876,2.816c0.392,0.226,0.342,0.621-0.109,0.881l-4.832,2.79
			C343.333,252.672,342.649,252.701,342.258,252.475z"/>
		<path fill="#06033E" d="M349.788,256.822l-4.876-2.815c-0.392-0.226-0.343-0.62,0.109-0.882l4.832-2.789
			c0.451-0.262,1.136-0.29,1.527-0.064l4.876,2.816c0.392,0.226,0.343,0.621-0.11,0.881l-4.831,2.79
			C350.863,257.02,350.18,257.048,349.788,256.822z"/>
		<path fill="#06033E" d="M357.318,261.17l-4.876-2.815c-0.392-0.226-0.343-0.621,0.109-0.882l4.831-2.789
			c0.452-0.262,1.137-0.29,1.528-0.064l4.876,2.816c0.392,0.226,0.342,0.62-0.109,0.881l-4.832,2.79
			C358.394,261.367,357.71,261.396,357.318,261.17z"/>
		<path fill="#06033E" d="M254.024,226.926l-14.361-8.292c-0.392-0.226-0.342-0.621,0.11-0.882l4.831-2.79
			c0.452-0.261,1.136-0.289,1.528-0.063l14.361,8.291c0.392,0.226,0.342,0.621-0.11,0.882l-4.832,2.79
			C255.1,227.123,254.416,227.152,254.024,226.926z"/>
		<path fill="#06033E" d="M346.535,280.338l-14.36-8.292c-0.392-0.226-0.343-0.621,0.109-0.882l4.832-2.789
			c0.452-0.262,1.136-0.29,1.527-0.064l14.36,8.291c0.392,0.227,0.343,0.621-0.109,0.883l-4.831,2.789
			C347.611,280.535,346.927,280.563,346.535,280.338z"/>
		<path fill="#06033E" d="M316.421,272.554l-4.876-2.815c-0.392-0.227-0.343-0.621,0.109-0.882l5.756-3.323
			c0.452-0.261,1.136-0.289,1.527-0.063l4.876,2.814c0.392,0.227,0.343,0.621-0.109,0.883l-5.756,3.322
			C317.496,272.752,316.813,272.779,316.421,272.554z"/>
		<path fill="#06033E" d="M261.736,240.981l-7.798-4.503c-0.392-0.226-0.342-0.62,0.11-0.881l5.755-3.324
			c0.452-0.26,1.136-0.289,1.528-0.063l7.798,4.502c0.391,0.227,0.342,0.621-0.11,0.883l-5.755,3.322
			C262.812,241.18,262.127,241.207,261.736,240.981z"/>
		<path fill="#06033E" d="M309.166,268.365l-7.799-4.503c-0.392-0.226-0.343-0.621,0.109-0.882l5.756-3.323
			c0.452-0.261,1.136-0.289,1.527-0.063l7.799,4.503c0.391,0.226,0.342,0.62-0.11,0.882l-5.755,3.322
			C310.241,268.563,309.557,268.591,309.166,268.365z"/>
		<path fill="#06033E" d="M272.601,247.254l-7.798-4.502c-0.392-0.227-0.342-0.621,0.11-0.883l5.755-3.322
			c0.452-0.262,1.136-0.289,1.527-0.063l7.798,4.503c0.392,0.226,0.343,0.62-0.109,0.881l-5.756,3.323
			C273.676,247.451,272.992,247.48,272.601,247.254z"/>
		<path fill="#06033E" d="M272.248,238.514l33.904,19.576c0.421,0.242,0.421,0.636,0,0.879l-5.869,3.389
			c-0.421,0.242-1.103,0.242-1.523,0l-33.905-19.575L272.248,238.514z"/>
		<path fill="#06033E" d="M337.467,280.437l5.432,3.136c0.321,0.186,0.28,0.509-0.09,0.723l-2.354,1.359
			c-0.37,0.214-0.931,0.237-1.252,0.053l-5.432-3.137c-0.321-0.186-0.28-0.509,0.09-0.723l2.354-1.359
			C336.585,280.274,337.146,280.251,337.467,280.437z"/>
		<path fill="#06033E" d="M329.874,276.053l5.432,3.136c0.321,0.186,0.28,0.509-0.09,0.724l-2.354,1.359
			c-0.371,0.213-0.931,0.236-1.252,0.051l-5.432-3.136c-0.32-0.185-0.28-0.509,0.09-0.723l2.354-1.359
			C328.992,275.891,329.553,275.867,329.874,276.053z"/>
		<path fill="#06033E" d="M322.344,271.705l5.432,3.137c0.321,0.185,0.28,0.508-0.09,0.723l-2.354,1.359
			c-0.37,0.213-0.931,0.236-1.252,0.051l-5.432-3.135c-0.321-0.186-0.28-0.51,0.09-0.724l2.354-1.358
			C321.463,271.543,322.023,271.52,322.344,271.705z"/>
		<path fill="#06033E" d="M334.032,273.652l5.432,3.135c0.321,0.186,0.281,0.51-0.09,0.724l-2.354,1.359
			c-0.37,0.214-0.931,0.237-1.252,0.052l-5.432-3.136c-0.32-0.186-0.28-0.509,0.09-0.724l2.354-1.359
			C333.151,273.49,333.712,273.467,334.032,273.652z"/>
	</g>
	<radialGradient id="SVGID_10_" cx="245.52" cy="107.1846" r="223.3408" gradientUnits="userSpaceOnUse">
		<stop  offset="0" style="stop-color:#E39A65"/>
		<stop  offset="0.4742" style="stop-color:#A92FFB"/>
		<stop  offset="0.5875" style="stop-color:#891CFB"/>
		<stop  offset="0.7262" style="stop-color:#6507FA"/>
		<stop  offset="1" style="stop-color:#3919BB"/>
	</radialGradient>
	<path fill="url(#SVGID_10_)" d="M413.729,264.856l-143.862-83.059c-2.262-1.306-3.443-4.489-2.637-7.108l32.534-105.631
		c0.806-2.62,3.293-3.685,5.556-2.378l143.861,83.059c2.262,1.306,3.443,4.488,2.637,7.108l-32.533,105.631
		C418.478,265.098,415.99,266.162,413.729,264.856z"/>
	<linearGradient id="SVGID_11_" gradientUnits="userSpaceOnUse" x1="270.0674" y1="165.8125" x2="449.0332" y2="165.8125">
		<stop  offset="0" style="stop-color:#3919BB"/>
		<stop  offset="1" style="stop-color:#6507FA"/>
	</linearGradient>
	<path fill="url(#SVGID_11_)" d="M412.371,261.157l-139.538-80.629c-2.165-1.25-3.295-4.296-2.524-6.802l31.104-100.983
		c0.771-2.507,3.15-3.526,5.315-2.276l139.538,80.629c2.165,1.25,3.295,4.295,2.523,6.802l-31.104,100.982
		C416.917,261.389,414.536,262.407,412.371,261.157z"/>
	<path opacity="0.4" fill="#06033E" d="M412.371,261.157l-139.538-80.629c-2.165-1.25-3.295-4.296-2.524-6.802l31.104-100.983
		c0.771-2.507,3.15-3.526,5.315-2.276l139.538,80.629c2.165,1.25,3.295,4.295,2.523,6.802l-31.104,100.982
		C416.917,261.389,414.536,262.407,412.371,261.157z"/>
	<path opacity="0.4" fill="#06033E" d="M412.371,261.157l-139.538-80.629c-2.165-1.25-3.295-4.296-2.524-6.802l31.104-100.983
		c0.771-2.507,3.15-3.526,5.315-2.276l139.538,80.629c2.165,1.25,3.295,4.295,2.523,6.802l-31.104,100.982
		C416.917,261.389,414.536,262.407,412.371,261.157z"/>
	<path opacity="0.5" fill="#06033E" d="M404.875,226.574l-94.46-54.537c-1.485-0.857-2.261-2.947-1.731-4.667l21.361-69.357
		c0.529-1.72,2.162-2.419,3.647-1.562l94.46,54.537c1.485,0.857,2.261,2.947,1.731,4.667l-21.361,69.357
		C407.993,226.732,406.36,227.432,404.875,226.574z"/>
	<g>
		<radialGradient id="SVGID_12_" cx="163.9883" cy="59.4917" r="347.8463" gradientUnits="userSpaceOnUse">
			<stop  offset="0" style="stop-color:#E39A65"/>
			<stop  offset="0.4742" style="stop-color:#A92FFB"/>
			<stop  offset="0.5875" style="stop-color:#891CFB"/>
			<stop  offset="0.7262" style="stop-color:#6507FA"/>
			<stop  offset="1" style="stop-color:#3919BB"/>
		</radialGradient>
		<path fill="url(#SVGID_12_)" d="M392.112,231.971l-94.46-54.536c-1.485-0.857-2.261-2.947-1.731-4.667l21.361-69.358
			c0.529-1.72,2.162-2.419,3.647-1.562l94.46,54.537c1.485,0.858,2.261,2.947,1.731,4.667L395.76,230.41
			C395.23,232.13,393.598,232.828,392.112,231.971z"/>
	</g>
	<g opacity="0.5">
		<path fill="#06033E" d="M392.112,231.971l-94.46-54.536c-1.485-0.857-2.261-2.947-1.731-4.667l21.361-69.358
			c0.529-1.72,2.162-2.419,3.647-1.562l94.46,54.537c1.485,0.858,2.261,2.947,1.731,4.667L395.76,230.41
			C395.23,232.13,393.598,232.828,392.112,231.971z"/>
	</g>
	<path fill="#FFFFFF" d="M415.39,156.385l-94.46-54.537c-0.931-0.537-1.919-0.462-2.658,0.091c0.446-0.013,0.91,0.087,1.364,0.349
		l94.46,54.537c1.485,0.857,2.261,2.947,1.731,4.667l-21.361,69.358c-0.197,0.643-0.55,1.141-0.989,1.471
		c1.013-0.03,1.916-0.717,2.283-1.91l21.361-69.358C417.65,159.332,416.875,157.242,415.39,156.385z"/>
	<path opacity="0.4" fill="#06033E" d="M272.976,288.609c-1.301,0-2.548-0.271-3.5-0.82l-37.845-21.85
		c-1.003-0.58-1.555-1.406-1.555-2.332c-0.001-1.072,0.761-2.127,2.087-2.893l19.48-11.248c2.38-1.373,5.874-1.508,7.957-0.307
		l37.845,21.85c1.003,0.58,1.555,1.408,1.555,2.332c0.001,1.072-0.761,2.127-2.087,2.893l-19.48,11.248
		C276.141,288.229,274.52,288.609,272.976,288.609z M256.118,249.447c-1.368,0-2.821,0.328-3.928,0.967l-19.48,11.248
		c-0.979,0.564-1.542,1.275-1.542,1.945c0,0.664,0.549,1.119,1.01,1.385l37.845,21.85c1.715,0.992,4.858,0.852,6.863-0.307
		l19.48-11.246c0.979-0.566,1.542-1.275,1.542-1.947c0-0.662-0.549-1.119-1.01-1.385l-37.845-21.85
		C258.285,249.664,257.229,249.447,256.118,249.447z"/>
</g>
<g>
	<path fill="#FFFFFF" d="M386.466,150.649l-4.269-2.465c-0.396-0.229-0.608-0.778-0.475-1.227l0,0
		c0.134-0.449,0.563-0.628,0.959-0.399l4.27,2.464c0.396,0.229,0.608,0.778,0.474,1.228l0,0
		C387.291,150.699,386.861,150.877,386.466,150.649z"/>
	<path fill="#FFFFFF" d="M334.903,120.989l-11.748-6.763c-0.396-0.229-0.608-0.778-0.475-1.228l0,0
		c0.134-0.449,0.563-0.628,0.96-0.399l11.748,6.763c0.396,0.229,0.608,0.778,0.475,1.228l0,0
		C335.729,121.039,335.3,121.218,334.903,120.989z"/>
	<path fill="#FFFFFF" d="M394.607,155.35l-4.269-2.464c-0.396-0.229-0.608-0.778-0.475-1.228l0,0
		c0.135-0.449,0.564-0.628,0.96-0.399l4.269,2.464c0.396,0.229,0.608,0.778,0.475,1.228l0,0
		C395.434,155.399,395.004,155.578,394.607,155.35z"/>
	<path fill="#FFFFFF" d="M402.75,160.051l-4.269-2.465c-0.396-0.229-0.608-0.778-0.475-1.227l0,0
		c0.134-0.449,0.563-0.628,0.96-0.399l4.269,2.464c0.396,0.229,0.608,0.778,0.475,1.227l0,0
		C403.575,160.101,403.146,160.279,402.75,160.051z"/>
	<path fill="#F8359E" d="M406.752,162.364l-0.129-0.077c-0.396-0.229-0.608-0.778-0.475-1.228l0,0
		c0.135-0.449,0.564-0.628,0.96-0.399l0.129,0.077c0.396,0.229,0.608,0.778,0.475,1.228l0,0
		C407.578,162.414,407.147,162.593,406.752,162.364z"/>
</g>
<linearGradient id="SVGID_13_" gradientUnits="userSpaceOnUse" x1="388.8945" y1="355.6299" x2="465.6699" y2="355.6299">
	<stop  offset="0" style="stop-color:#E39A65"/>
	<stop  offset="1" style="stop-color:#E95F8D"/>
</linearGradient>
<path fill="url(#SVGID_13_)" d="M427.282,377.654c-2.701,0-5.403-0.695-7.813-2.086l0,0l-28.596-16.51
	c-1.239-0.715-1.979-1.998-1.979-3.43c0-1.43,0.74-2.713,1.979-3.428l28.595-16.508c4.819-2.783,10.807-2.783,15.626,0
	l28.595,16.508c1.24,0.717,1.98,1.998,1.98,3.43s-0.74,2.713-1.98,3.428l-28.594,16.51
	C432.687,376.959,429.984,377.654,427.282,377.654z M420.399,373.957c4.247,2.451,9.521,2.449,13.767,0l28.594-16.51
	c0.656-0.379,1.049-1.059,1.049-1.816c0-0.76-0.393-1.438-1.049-1.818l-28.596-16.508c-4.246-2.451-9.521-2.451-13.765,0
	l-28.596,16.508c-0.656,0.379-1.048,1.059-1.048,1.816c0,0.76,0.392,1.439,1.048,1.818L420.399,373.957z"/>
<g>
	<path opacity="0.6" fill="#020230" d="M441.17,364.314c-7.67,4.429-20.105,4.429-27.776,0c-7.67-4.428-7.67-11.607,0-16.036
		s20.105-4.429,27.776,0.001C448.84,352.707,448.84,359.887,441.17,364.314z"/>
	<radialGradient id="SVGID_14_" cx="395.8457" cy="293.2813" r="165.3487" gradientUnits="userSpaceOnUse">
		<stop  offset="0" style="stop-color:#E39A65"/>
		<stop  offset="0.1528" style="stop-color:#A92FFB"/>
		<stop  offset="0.4087" style="stop-color:#3919BB"/>
		<stop  offset="0.9311" style="stop-color:#3919BB"/>
	</radialGradient>
	<path fill="url(#SVGID_14_)" d="M456.396,275.478h-55.941l5.203,60.569l0,0c0,3.363,2.223,6.729,6.669,9.295
		c8.891,5.133,23.307,5.134,32.198,0c4.446-2.566,6.669-5.932,6.668-9.295L456.396,275.478z"/>
	<path opacity="0.4" fill="#06033E" d="M456.396,275.478h-55.941l0.855,9.965c1.282,1.644,3.007,3.22,5.185,4.664
		c10.69,7.091,28.328,8.458,40.364,3.351l-1.861,44.301c-0.081,1.931-0.748,3.809-1.999,5.281
		c-1.813,2.133-5.304,4.643-12.015,6.061c4.946-0.32,9.748-1.567,13.541-3.758c4.446-2.566,6.669-5.932,6.668-9.295l4.173-48.575
		l0,0L456.396,275.478z"/>
	<path opacity="0.4" fill="#06033E" d="M448.204,286.896c-10.924,6.307-28.634,6.307-39.558,0s-10.924-16.531,0-22.838
		c10.923-6.307,28.633-6.307,39.557,0S459.127,280.59,448.204,286.896z"/>
	<path opacity="0.4" fill="#06033E" d="M445.461,279.621c-9.408,5.432-24.663,5.432-34.071,0
		c-9.409-5.432-9.409-14.239-0.001-19.672c9.408-5.432,24.663-5.432,34.071,0.001C454.869,265.382,454.869,274.189,445.461,279.621z
		"/>
	<linearGradient id="SVGID_15_" gradientUnits="userSpaceOnUse" x1="398.7715" y1="272.7988" x2="458.0811" y2="272.7988">
		<stop  offset="0" style="stop-color:#E39A65"/>
		<stop  offset="0.252" style="stop-color:#A92FFB"/>
		<stop  offset="0.5556" style="stop-color:#3919BB"/>
	</linearGradient>
	<path fill="url(#SVGID_15_)" d="M458.053,274.717l0.003,0.004l-0.005-0.049c-0.002-0.027-0.006-0.056-0.009-0.083l-0.537-5.423
		l-0.022,0.061c-0.24-4.104-3.067-8.168-8.494-11.302c-11.357-6.558-29.771-6.558-41.127-0.001
		c-5.563,3.213-8.395,7.403-8.506,11.613l-0.007-0.014l-0.512,4.828c-0.015,0.126-0.031,0.252-0.04,0.377l-0.009,0.08l0.006-0.004
		c-0.307,4.601,2.576,9.259,8.659,12.771c11.583,6.687,30.361,6.688,41.944,0C455.519,284.041,458.402,279.346,458.053,274.717z"/>
	<linearGradient id="SVGID_16_" gradientUnits="userSpaceOnUse" x1="404.333" y1="269.7852" x2="452.5166" y2="269.7852">
		<stop  offset="0" style="stop-color:#4F1FEC"/>
		<stop  offset="1" style="stop-color:#A92FFB"/>
	</linearGradient>
	<path fill="url(#SVGID_16_)" d="M445.461,279.621c-9.408,5.432-24.663,5.432-34.071,0c-9.409-5.432-9.409-14.239-0.001-19.672
		c9.408-5.432,24.663-5.432,34.071,0.001C454.869,265.382,454.869,274.189,445.461,279.621z"/>
	<linearGradient id="SVGID_17_" gradientUnits="userSpaceOnUse" x1="403.1895" y1="269.7852" x2="451.374" y2="269.7852">
		<stop  offset="0" style="stop-color:#4F1FEC"/>
		<stop  offset="1" style="stop-color:#A92FFB"/>
	</linearGradient>
	<path fill="url(#SVGID_17_)" d="M444.317,279.621c-9.408,5.432-24.662,5.432-34.071,0c-9.408-5.432-9.409-14.239,0-19.672
		c9.408-5.432,24.662-5.432,34.071,0.001C453.726,265.382,453.727,274.189,444.317,279.621z"/>
	<path opacity="0.4" fill="#06033E" d="M414.247,262.021c9.408-5.432,24.662-5.432,34.071,0c0.119,0.07,0.22,0.146,0.337,0.216
		c-0.907-0.81-1.967-1.578-3.195-2.287c-9.408-5.433-24.663-5.433-34.071-0.001c-9.288,5.363-9.389,14.01-0.336,19.457
		C405.008,274.016,406.066,266.744,414.247,262.021z"/>
	<linearGradient id="SVGID_18_" gradientUnits="userSpaceOnUse" x1="404.3369" y1="263.4336" x2="465.0885" y2="263.4336">
		<stop  offset="0" style="stop-color:#131060"/>
		<stop  offset="0.1857" style="stop-color:#141062"/>
		<stop  offset="0.2823" style="stop-color:#19106A"/>
		<stop  offset="0.3584" style="stop-color:#221078"/>
		<stop  offset="0.4238" style="stop-color:#2E0F8B"/>
		<stop  offset="0.4823" style="stop-color:#3E0FA3"/>
		<stop  offset="0.5359" style="stop-color:#510EC2"/>
		<stop  offset="0.5848" style="stop-color:#680DE5"/>
		<stop  offset="0.6071" style="stop-color:#740DF8"/>
		<stop  offset="0.6179" style="stop-color:#7A14F0"/>
		<stop  offset="0.6826" style="stop-color:#9B3CC3"/>
		<stop  offset="0.7477" style="stop-color:#B75D9D"/>
		<stop  offset="0.8123" style="stop-color:#CC7680"/>
		<stop  offset="0.8762" style="stop-color:#DC886C"/>
		<stop  offset="0.9391" style="stop-color:#E5935F"/>
		<stop  offset="1" style="stop-color:#E8975B"/>
	</linearGradient>
	<path fill="url(#SVGID_18_)" d="M411.389,262.363c9.408-5.432,24.663-5.432,34.071,0.001c4.173,2.409,6.49,5.481,6.963,8.628
		c0.592-3.949-1.726-8.019-6.963-11.042c-9.408-5.433-24.663-5.433-34.071-0.001c-5.236,3.023-7.554,7.092-6.962,11.043
		C404.899,267.845,407.217,264.772,411.389,262.363z"/>
	<radialGradient id="SVGID_19_" cx="391.3691" cy="256.0186" r="108.1646" gradientUnits="userSpaceOnUse">
		<stop  offset="0" style="stop-color:#E39A65"/>
		<stop  offset="0.252" style="stop-color:#A92FFB"/>
		<stop  offset="0.7357" style="stop-color:#3919BB"/>
	</radialGradient>
	<path fill="url(#SVGID_19_)" d="M449.168,258.051c-11.341-6.681-29.821-6.844-41.277-0.363s-11.549,17.15-0.209,23.832
		c11.341,6.681,29.82,6.844,41.276,0.363S460.508,264.732,449.168,258.051z M445.461,279.621c-3.143,1.814-6.943,3.008-10.955,3.611
		l-0.438-1.438c-0.177-0.58-0.712-0.977-1.318-0.977h-8.65c-0.607,0-1.143,0.396-1.319,0.977l-0.437,1.437
		c-4.012-0.603-7.812-1.796-10.954-3.61c-9.409-5.433-9.409-14.239-0.001-19.672c9.408-5.432,24.663-5.432,34.071,0.001
		C454.869,265.382,454.869,274.189,445.461,279.621z"/>
	<g>
		<path fill="#FFFFFF" d="M445.46,258.92c-9.408-5.432-24.663-5.432-34.071,0c-4.931,2.847-7.272,6.621-7.035,10.35
			c0.217-3.386,2.559-6.734,7.035-9.32c9.408-5.432,24.663-5.432,34.071,0.001c4.478,2.585,6.819,5.935,7.036,9.32
			C452.733,265.541,450.392,261.768,445.46,258.92z"/>
		<path fill="#FFFFFF" d="M448.958,280.854c-11.456,6.48-29.936,6.316-41.276-0.364c-5.396-3.179-8.198-7.263-8.424-11.366
			c-0.224,4.445,2.576,8.951,8.424,12.396c11.341,6.681,29.82,6.844,41.276,0.363c6.005-3.396,8.882-7.943,8.634-12.465
			C457.381,273.594,454.507,277.715,448.958,280.854z"/>
	</g>
	<path fill="#0C0A78" d="M431.01,283.98h-5.171c-0.36,0-0.653-0.293-0.653-0.653v-0.091c0-0.361,0.293-0.654,0.653-0.654h5.171
		c0.361,0,0.654,0.293,0.654,0.654v0.091C431.664,283.688,431.371,283.98,431.01,283.98z"/>
	<linearGradient id="SVGID_20_" gradientUnits="userSpaceOnUse" x1="424.6113" y1="283.041" x2="433.0172" y2="283.041">
		<stop  offset="0" style="stop-color:#131060"/>
		<stop  offset="0.1857" style="stop-color:#141062"/>
		<stop  offset="0.2823" style="stop-color:#19106A"/>
		<stop  offset="0.3584" style="stop-color:#221078"/>
		<stop  offset="0.4238" style="stop-color:#2E0F8B"/>
		<stop  offset="0.4823" style="stop-color:#3E0FA3"/>
		<stop  offset="0.5359" style="stop-color:#510EC2"/>
		<stop  offset="0.5848" style="stop-color:#680DE5"/>
		<stop  offset="0.6071" style="stop-color:#740DF8"/>
		<stop  offset="0.6179" style="stop-color:#7A14F0"/>
		<stop  offset="0.6826" style="stop-color:#9B3CC3"/>
		<stop  offset="0.7477" style="stop-color:#B75D9D"/>
		<stop  offset="0.8123" style="stop-color:#CC7680"/>
		<stop  offset="0.8762" style="stop-color:#DC886C"/>
		<stop  offset="0.9391" style="stop-color:#E5935F"/>
		<stop  offset="1" style="stop-color:#E8975B"/>
	</linearGradient>
	<path fill="url(#SVGID_20_)" d="M431.01,282.582h-5.171c-0.36,0-0.653,0.293-0.653,0.654v0.091c0,0.062,0.02,0.117,0.035,0.174
		c0.078-0.274,0.319-0.479,0.618-0.479h5.171c0.299,0,0.541,0.205,0.619,0.479c0.016-0.057,0.035-0.112,0.035-0.174v-0.091
		C431.664,282.875,431.371,282.582,431.01,282.582z"/>
	<g>
		<path fill="#E8975B" d="M429.217,329.825c-0.635,2.386-3.082,3.805-5.468,3.171c-2.385-0.635-3.805-3.082-3.171-5.469
			c0.635-2.385,2.885-3.061,5.27-2.426C428.233,325.736,429.851,327.439,429.217,329.825z"/>
		<path fill="#E8975B" d="M432.735,325.117c-0.899,0.879-2.051,0.766-2.814-0.016c-0.765-0.782-0.852-1.936,0.048-2.814
			c0.899-0.88,2.61-1.313,3.374-0.531C434.107,322.537,433.635,324.237,432.735,325.117z"/>
		<path fill="#E8975B" d="M428.061,321.377c-0.22,1.239-1.223,1.816-2.299,1.625c-1.075-0.191-1.817-1.079-1.597-2.318
			c0.22-1.238,1.359-2.586,2.436-2.395C427.677,318.481,428.281,320.139,428.061,321.377z"/>
		<path fill="#E8975B" d="M422.3,320.806c0.479,1.163-0.058,2.188-1.068,2.604c-1.011,0.415-2.113,0.064-2.592-1.1
			c-0.479-1.163-0.239-2.911,0.771-3.327C420.421,318.568,421.821,319.643,422.3,320.806z"/>
	</g>
</g>
<path opacity="0.5" fill="#FFFFFF" d="M414.504,277.115c0,0,15.641-5.241,9.308-23.213c-6.333-17.971-18.662-23.447-13.695-37.824
	c0,0-7.784,11.638-0.511,27.384c7.274,15.746,8.87,13.938,8.784,21.468c-0.102,8.946-7.329,12.185-7.329,12.185H414.504z"/>
<path opacity="0.5" fill="#FFFFFF" d="M415.91,218.579c0,0-1.628-10.75,8.455-21.583c0,0-8.916,19.917-6,29.75
	C418.365,226.746,416.007,220.495,415.91,218.579z"/>
<g>
	<path opacity="0.6" fill="#020230" d="M118.612,192.302l61.045-35.24c1.618-0.934,4.24-0.934,5.858,0l34.941,20.173
		c1.618,0.934,1.618,2.448,0,3.382l-61.045,35.24c-1.618,0.934-4.24,0.934-5.858,0l-34.94-20.174
		C116.994,194.751,116.994,193.236,118.612,192.302z"/>
	<linearGradient id="SVGID_21_" gradientUnits="userSpaceOnUse" x1="100.3984" y1="186.665" x2="239.2822" y2="186.665">
		<stop  offset="0" style="stop-color:#E39A65"/>
		<stop  offset="1" style="stop-color:#E95F8D"/>
	</linearGradient>
	<path fill="url(#SVGID_21_)" d="M156.754,227.17c-1.486,0-2.972-0.334-4.131-1.004l-50.241-29.047
		c-1.279-0.738-1.983-1.776-1.983-2.923c0-1.146,0.704-2.184,1.984-2.922l76.411-44.11c2.316-1.338,5.946-1.338,8.263,0
		l50.242,29.048c1.278,0.738,1.983,1.776,1.983,2.922c0,1.146-0.705,2.185-1.983,2.923l-76.412,44.11
		C159.729,226.836,158.241,227.17,156.754,227.17z M182.925,148.024c-1.167,0-2.333,0.25-3.2,0.751l-76.412,44.11l0,0
		c-0.669,0.387-1.054,0.864-1.054,1.311c0,0.447,0.385,0.925,1.054,1.312l50.242,29.048c1.734,1.002,4.667,1.002,6.403,0
		l76.411-44.11c0.669-0.387,1.052-0.864,1.052-1.312c0-0.446-0.383-0.924-1.053-1.311l-50.242-29.048
		C185.259,148.274,184.092,148.024,182.925,148.024z M102.848,192.08h0.01H102.848z"/>
	<radialGradient id="SVGID_22_" cx="115.6489" cy="182.8472" r="65.9696" gradientUnits="userSpaceOnUse">
		<stop  offset="0" style="stop-color:#E39A65"/>
		<stop  offset="0.4742" style="stop-color:#A92FFB"/>
		<stop  offset="0.5679" style="stop-color:#891CFB"/>
		<stop  offset="0.6825" style="stop-color:#6507FA"/>
		<stop  offset="0.7381" style="stop-color:#0D0C6F"/>
	</radialGradient>
	<path fill="url(#SVGID_22_)" d="M221.67,170.543v-1.113l-0.268,0.27c-0.202-0.31-0.514-0.601-0.946-0.85l-34.941-20.173
		c-1.617-0.934-4.24-0.934-5.858,0l-61.045,35.24c-0.389,0.225-0.681,0.483-0.883,0.758l-0.329-0.149v1.063
		c-0.008,0.618,0.395,1.238,1.211,1.71l34.941,20.173c1.618,0.934,4.241,0.934,5.858,0l61.045-35.24
		c0.801-0.463,1.205-1.068,1.212-1.674h0.001v-0.012v-0.001V170.543z"/>
	
		<radialGradient id="SVGID_23_" cx="3498.2051" cy="-1251.582" r="117.6116" gradientTransform="matrix(-0.866 0.5 1 0.5774 4413.6055 -859.9036)" gradientUnits="userSpaceOnUse">
		<stop  offset="0" style="stop-color:#E39A65"/>
		<stop  offset="0.401" style="stop-color:#A92FFB"/>
		<stop  offset="0.5473" style="stop-color:#891CFB"/>
		<stop  offset="0.7262" style="stop-color:#6507FA"/>
		<stop  offset="1" style="stop-color:#3919BB"/>
	</radialGradient>
	<path fill="url(#SVGID_23_)" d="M118.612,182.788l61.045-35.24c1.618-0.934,4.24-0.934,5.858,0l34.941,20.173
		c1.618,0.934,1.618,2.448,0,3.382l-61.045,35.24c-1.618,0.934-4.24,0.934-5.858,0l-34.94-20.173
		C116.994,185.236,116.994,183.722,118.612,182.788z"/>
	<path fill="#FFE7D7" d="M220.457,170.222l-61.045,35.24c-1.618,0.934-4.24,0.934-5.858,0l-34.94-20.173
		c-0.614-0.354-0.994-0.792-1.142-1.25c-0.242,0.749,0.138,1.552,1.142,2.131l34.94,20.173c1.618,0.934,4.241,0.934,5.858,0
		l61.045-35.24c1.004-0.579,1.384-1.382,1.142-2.131C221.45,169.43,221.07,169.868,220.457,170.222z"/>
	
		<radialGradient id="SVGID_24_" cx="2402.0215" cy="-1828.8657" r="60.0361" gradientTransform="matrix(-0.866 0.5 0.9935 0.5736 4041.8979 32.696)" gradientUnits="userSpaceOnUse">
		<stop  offset="0" style="stop-color:#E39A65"/>
		<stop  offset="0.1355" style="stop-color:#D47E8C"/>
		<stop  offset="0.401" style="stop-color:#A92FFB"/>
		<stop  offset="0.5592" style="stop-color:#861AFA"/>
		<stop  offset="0.7262" style="stop-color:#6507FA"/>
		<stop  offset="1" style="stop-color:#3919BB"/>
	</radialGradient>
	<path fill="url(#SVGID_24_)" d="M151.484,188.287l6.574-3.795c0.776-0.448,0.678-1.229-0.217-1.747l-3.758-2.17
		c-0.896-0.517-2.25-0.573-3.026-0.125l-6.574,3.795c-0.775,0.448-0.678,1.23,0.217,1.747l3.758,2.169
		C149.354,188.678,150.709,188.734,151.484,188.287z"/>
	<g>
		<path fill="#FFE7D7" d="M134.359,184.368l-3.97-2.292l0.972-0.561c0.184-0.106,0.36-0.189,0.529-0.249
			c0.169-0.06,0.345-0.099,0.527-0.116c0.182-0.018,0.367-0.003,0.556,0.043c0.188,0.046,0.376,0.125,0.565,0.235
			c0.488,0.284,0.567,0.555,0.237,0.812c0.28-0.11,0.557-0.152,0.833-0.126s0.56,0.122,0.853,0.289
			c0.378,0.216,0.57,0.436,0.576,0.659c0.006,0.223-0.173,0.439-0.538,0.649L134.359,184.368z M132.73,182.593l0.225-0.13
			c0.212-0.123,0.313-0.233,0.302-0.332s-0.125-0.21-0.34-0.335c-0.112-0.064-0.216-0.109-0.312-0.134s-0.192-0.029-0.29-0.014
			c-0.098,0.016-0.189,0.042-0.277,0.08c-0.087,0.038-0.193,0.092-0.319,0.166l-0.101,0.058L132.73,182.593z M134.572,183.656
			l0.266-0.154c0.215-0.125,0.314-0.239,0.297-0.345s-0.142-0.226-0.374-0.36c-0.24-0.138-0.46-0.211-0.661-0.22
			s-0.412,0.051-0.632,0.178l-0.228,0.131L134.572,183.656z"/>
		<path fill="#FFE7D7" d="M136.871,182.918l-3.163-2.758l0.754-0.436l4.774,1.828l-0.673,0.389l-1.082-0.439l-0.688,0.396
			l0.759,0.626L136.871,182.918z M136.399,181.581l0.532-0.307l-1.896-0.788L136.399,181.581z"/>
		<path fill="#FFE7D7" d="M139.627,181.327l-3.97-2.292l0.498-0.287l3.221,0.737l-2.249-1.298l0.599-0.345l3.97,2.292l-0.474,0.273
			l-3.345-0.798l2.363,1.365L139.627,181.327z"/>
		<path fill="#FFE7D7" d="M142.29,179.789l-3.97-2.292l0.723-0.417l1.724,0.996l-0.943-1.446l0.689-0.398l1.018,1.464l3.032,0.783
			l-0.721,0.416l-2.553-0.683l0.115,0.232l1.609,0.929L142.29,179.789z"/>
	</g>
	<g>
		<path opacity="0.4" fill="#06033E" d="M165.882,190.908c-0.343-0.198-0.898-0.198-1.241,0l-5.755,3.323l-0.496,0.286l-4.056,2.341
			c-0.343,0.198-0.343,0.519,0,0.717c0.343,0.198,0.899,0.198,1.241,0l4.056-2.341l0.496-0.287l5.754-3.322
			C166.225,191.427,166.225,191.106,165.882,190.908z"/>
		<path opacity="0.4" fill="#06033E" d="M179.263,183.127c-0.343-0.198-0.898-0.198-1.241,0l-5.754,3.322l-0.496,0.287l-4.055,2.341
			c-0.343,0.198-0.343,0.519,0,0.716c0.343,0.198,0.898,0.198,1.241,0l4.055-2.342l0.496-0.286l5.754-3.322
			C179.605,183.646,179.605,183.325,179.263,183.127z"/>
		<path opacity="0.4" fill="#06033E" d="M192.644,175.346c-0.343-0.198-0.898-0.198-1.241,0l-5.755,3.322l-0.496,0.287l-4.055,2.341
			c-0.343,0.198-0.343,0.519,0,0.716c0.343,0.198,0.899,0.198,1.241,0l4.056-2.341l0.496-0.286l5.755-3.323
			C192.986,175.864,192.986,175.543,192.644,175.346z"/>
		<path opacity="0.4" fill="#06033E" d="M206.024,167.564c-0.343-0.198-0.898-0.198-1.241,0l-5.754,3.322l-0.496,0.286l-4.055,2.341
			c-0.343,0.198-0.343,0.519,0,0.717c0.342,0.198,0.898,0.198,1.241,0l4.055-2.341l0.496-0.286l5.754-3.322
			C206.367,168.083,206.367,167.762,206.024,167.564z"/>
	</g>
	<path fill="#FFE7D7" d="M180.557,156.513c-0.343-0.198-0.898-0.198-1.242,0l-2.941,1.698l-0.496,0.286l-4.055,2.341
		c-0.343,0.198-0.343,0.519,0,0.717c0.343,0.198,0.898,0.198,1.241,0l4.055-2.341l0.496-0.287l2.942-1.698
		C180.9,157.031,180.899,156.71,180.557,156.513z"/>
	<path fill="#FFE7D7" d="M170.339,162.509c-0.343-0.198-0.898-0.198-1.242,0l-2.941,1.698l-0.496,0.287l-0.424,0.246
		c-0.343,0.198-0.343,0.519,0,0.717s0.898,0.198,1.241,0l0.424-0.246l0.496-0.286l2.942-1.698
		C170.682,163.027,170.682,162.707,170.339,162.509z"/>
	<path fill="#FFE7D7" d="M160.74,200.09l2.249-1.298c0.208-0.121,0.182-0.331-0.059-0.47l0,0c-0.241-0.139-0.605-0.154-0.814-0.034
		l-2.249,1.298c-0.209,0.121-0.183,0.331,0.059,0.47l0,0C160.167,200.195,160.532,200.21,160.74,200.09z"/>
	<path fill="#FFE7D7" d="M164.248,198.065l0.902-0.521c0.208-0.121,0.183-0.331-0.059-0.47l0,0
		c-0.241-0.139-0.605-0.154-0.814-0.034l-0.901,0.521c-0.209,0.121-0.183,0.331,0.058,0.47l0,0
		C163.675,198.17,164.039,198.185,164.248,198.065z"/>
</g>
<g>
	<g>
		<path fill="#E8975B" d="M360.136,191.634c-0.085,0-0.171-0.021-0.25-0.067l-21.02-12.136c-1.454-0.839-2.375-2.584-2.188-4.149
			l2.988-24.964c0.139-1.165-0.59-2.525-1.696-3.165l-5.295-3.057c-0.239-0.138-0.321-0.443-0.183-0.683
			c0.138-0.238,0.445-0.321,0.683-0.183l5.295,3.057c1.456,0.841,2.376,2.586,2.188,4.149l-2.988,24.964
			c-0.139,1.166,0.591,2.526,1.696,3.165l21.02,12.136c0.239,0.138,0.321,0.443,0.183,0.683
			C360.477,191.544,360.308,191.634,360.136,191.634z"/>
		<path fill="#E8975B" d="M362.211,186.633c-0.739,0-1.516-0.216-2.247-0.639l-22.694-13.104c-0.173-0.1-0.271-0.293-0.246-0.492
			l2.045-17.086c0.02-0.167,0.122-0.313,0.272-0.388s0.328-0.069,0.474,0.015l28.029,16.183l0,0
			c0.806,0.466,1.178,1.413,0.904,2.303l-3.32,10.811c-0.314,1.025-1.005,1.794-1.943,2.162
			C363.085,186.555,362.654,186.633,362.211,186.633z M338.056,172.19l22.408,12.939c0.907,0.522,1.876,0.645,2.654,0.338
			c0.649-0.255,1.13-0.797,1.354-1.524l3.32-10.811c0.135-0.442-0.05-0.913-0.449-1.145l-27.373-15.804L338.056,172.19z"/>
		<path fill="#E8975B" d="M339.865,188.486c-0.504,0-1.03-0.146-1.525-0.431c-1.495-0.864-2.309-2.709-1.85-4.201
			c0.217-0.708,0.695-1.238,1.347-1.495c0.731-0.286,1.608-0.189,2.404,0.269c1.496,0.864,2.309,2.709,1.85,4.201v0.001
			c-0.218,0.708-0.696,1.238-1.347,1.494C340.468,188.432,340.17,188.486,339.865,188.486z M338.718,183.196
			c-0.182,0-0.355,0.031-0.516,0.094c-0.367,0.145-0.629,0.441-0.757,0.857c-0.315,1.03,0.322,2.423,1.395,3.042
			c0.531,0.306,1.093,0.381,1.538,0.204c0.367-0.145,0.629-0.441,0.758-0.858c0.315-1.029-0.322-2.422-1.395-3.041
			C339.4,183.297,339.046,183.196,338.718,183.196z M341.613,186.682h0.01H341.613z"/>
		<path fill="#E8975B" d="M355.263,197.376c-0.503,0-1.029-0.146-1.524-0.431c-1.496-0.864-2.309-2.709-1.85-4.201
			c0.218-0.709,0.696-1.239,1.347-1.495c0.733-0.287,1.61-0.188,2.404,0.269c1.495,0.864,2.309,2.709,1.85,4.201l0,0
			c-0.217,0.708-0.695,1.238-1.346,1.495C355.866,197.323,355.568,197.376,355.263,197.376z M354.116,192.086
			c-0.182,0-0.355,0.031-0.515,0.094c-0.367,0.145-0.629,0.441-0.758,0.858c-0.315,1.029,0.322,2.422,1.395,3.041
			c0.53,0.306,1.09,0.381,1.539,0.204c0.367-0.145,0.629-0.441,0.757-0.857c0.315-1.03-0.323-2.423-1.395-3.042
			C354.798,192.188,354.444,192.086,354.116,192.086z M357.012,195.573h0.01H357.012z"/>
	</g>
	<path fill="#E8975B" d="M343.251,176.268c-0.049,0-0.098-0.007-0.146-0.022c-0.265-0.081-0.412-0.36-0.331-0.624l4.763-15.509
		c0.08-0.266,0.358-0.417,0.624-0.331c0.265,0.081,0.412,0.36,0.331,0.624l-4.763,15.509
		C343.663,176.13,343.465,176.268,343.251,176.268z"/>
	<path fill="#E8975B" d="M350.191,180.275c-0.049,0-0.098-0.007-0.146-0.022c-0.265-0.081-0.412-0.36-0.331-0.624l4.764-15.508
		c0.08-0.265,0.36-0.417,0.624-0.331c0.265,0.081,0.412,0.36,0.331,0.624l-4.764,15.508
		C350.604,180.137,350.405,180.275,350.191,180.275z"/>
	<path fill="#E8975B" d="M357.133,184.283c-0.049,0-0.098-0.007-0.146-0.022c-0.265-0.081-0.412-0.36-0.331-0.624l4.764-15.508
		c0.08-0.266,0.359-0.416,0.624-0.331c0.265,0.081,0.412,0.36,0.331,0.624l-4.764,15.508
		C357.545,184.145,357.347,184.283,357.133,184.283z"/>
	<path fill="#E8975B" d="M365.428,183.033c-0.085,0-0.171-0.021-0.25-0.067l-27.132-15.664c-0.239-0.138-0.321-0.443-0.183-0.683
		c0.137-0.239,0.443-0.321,0.683-0.183l27.132,15.664c0.239,0.138,0.321,0.443,0.183,0.683
		C365.769,182.943,365.6,183.033,365.428,183.033z"/>
</g>
<path fill="#FFFFFF" d="M381.122,175.206c-1.085,0-2.226-0.319-3.31-0.944c-3.416-1.973-5.434-6.463-4.5-10.01
	c0.443-1.683,1.483-2.941,2.928-3.543c1.573-0.658,3.484-0.449,5.246,0.567c3.416,1.973,5.435,6.463,4.5,10.01
	c-0.443,1.683-1.483,2.941-2.928,3.543C382.454,175.082,381.799,175.206,381.122,175.206z M378.179,161.262
	c-0.556,0-1.09,0.101-1.58,0.305c-1.171,0.488-2.019,1.525-2.386,2.921c-0.835,3.169,0.989,7.191,4.064,8.967
	c1.508,0.87,3.121,1.059,4.424,0.516c1.17-0.488,2.018-1.525,2.385-2.921l0,0c0.836-3.168-0.988-7.19-4.064-8.967
	C380.081,161.54,379.1,161.262,378.179,161.262z"/>
<g>
	<path fill="#FFFFFF" d="M377.694,169.938l0.187-0.708l1.745-1.266c0.02-0.015,0.089-0.063,0.204-0.144
		c0.116-0.081,0.192-0.138,0.23-0.171c0.038-0.032,0.097-0.086,0.174-0.161s0.138-0.15,0.179-0.228
		c0.042-0.077,0.074-0.164,0.099-0.26c0.048-0.182,0.05-0.34,0.002-0.475c-0.04-0.115-0.114-0.205-0.22-0.266
		c-0.017-0.01-0.033-0.019-0.053-0.027c-0.274-0.129-0.479,0.054-0.608,0.549l-0.063,0.238l-0.945-0.546l0.067-0.254
		c0.063-0.241,0.146-0.443,0.248-0.604c0.102-0.163,0.226-0.286,0.369-0.372c0.146-0.086,0.319-0.116,0.521-0.092
		s0.422,0.106,0.664,0.246c0.441,0.255,0.744,0.57,0.908,0.945c0.162,0.374,0.187,0.782,0.07,1.222
		c-0.04,0.15-0.094,0.285-0.158,0.405c-0.065,0.119-0.147,0.227-0.246,0.321c-0.098,0.095-0.186,0.172-0.265,0.232
		c-0.078,0.061-0.183,0.135-0.315,0.223c-0.042,0.027-0.073,0.048-0.094,0.063l-1.387,0.967l1.498,0.865l-0.21,0.797
		L377.694,169.938z"/>
</g>
</svg>
